<svg xmlns="http://www.w3.org/2000/svg" width="720" height="768" fill="none" viewBox="0 0 720 768">
  <g clip-path="url(#a)">
    <ellipse cx="577.5" cy="-23" fill="url(#b)" fill-opacity=".2" rx="229.5" ry="139"/>
    <ellipse cx="359" cy="523.5" fill="url(#c)" fill-opacity=".4" rx="403" ry="101.5"/>
    <ellipse cx="-74" cy="192" fill="url(#d)" fill-opacity=".2" rx="143" ry="139"/>
    <ellipse cx="404" cy="752.5" fill="url(#e)" fill-opacity=".2" rx="177" ry="99.5"/>
    <path fill="#91CECF" fill-opacity=".45" d="M124.16 516.652s-85.355-182.97-23.93-223.714c41.056-27.233 84.573 32.801 136.514 1.042 46.241-28.275 31.541-114.296 105.291-126.187 82.918-13.369 101.175 147.076 169.224 125.145 82.57-26.611 164.707 27.409 93.726 224.062l-480.825-.348Z"/>
    <path fill="#A2B5E2" fill-opacity=".5" d="M58.798 500a364.77 364.77 0 0 1-4.208-10.75l3.355-.794a363.15 363.15 0 0 0 4.182 10.678l-3.329.866Zm600.304-4.506-3.476-.341a639.64 639.64 0 0 0 1.628-11.121l3.481.304a638.491 638.491 0 0 1-1.633 11.158ZM50.723 478.423a390.77 390.77 0 0 1-3.533-10.898l3.4-.663a384.27 384.27 0 0 0 3.512 10.832l-3.379.729Zm611.447-5.269-3.486-.262c.444-3.73.853-7.484 1.218-11.154l3.489.221a595.103 595.103 0 0 1-1.221 11.195ZM43.992 456.563a372.574 372.574 0 0 1-2.86-11.022l3.436-.53a374.413 374.413 0 0 0 2.841 10.953l-3.417.599Zm620.406-5.814-3.494-.176c.298-3.727.556-7.488.773-11.175l3.496.128a546.022 546.022 0 0 1-.775 11.223ZM38.624 434.464c-.777-3.712-1.5-7.456-2.142-11.126l3.468-.383c.64 3.645 1.354 7.365 2.129 11.052l-3.455.457Zm627.084-6.17-3.499-.081c.136-3.744.23-7.508.279-11.188l3.502.03c-.05 3.697-.147 7.478-.282 11.239ZM34.724 412.168c-.522-3.749-.976-7.52-1.352-11.21l3.489-.225c.37 3.66.822 7.404 1.34 11.126l-3.477.309Zm627.777-6.333c-.042-3.747-.13-7.51-.266-11.185l3.499-.082c.136 3.695.224 7.476.266 11.242l-3.499.025ZM32.457 389.721A266.536 266.536 0 0 1 32 378.467l3.501-.042c.07 3.665.225 7.421.454 11.163l-3.498.133Zm629.217-6.244a379.9 379.9 0 0 0-.879-11.16l3.491-.208c.344 3.685.642 7.461.884 11.225l-3.496.143Zm-626.141-16.22-3.502-.057a233.4 233.4 0 0 1 .559-11.257l3.493.163a235.264 235.264 0 0 0-.55 11.151Zm624.049-6.079a337.039 337.039 0 0 0-1.574-11.108l3.473-.349a343.381 343.381 0 0 1 1.584 11.18l-3.483.277ZM37.197 344.983l-3.483-.279a206.429 206.429 0 0 1 1.722-11.193l3.465.401c-.66 3.62-1.234 7.344-1.704 11.071Zm618.849-5.977a293.065 293.065 0 0 0-2.377-11.01l3.442-.514c.856 3.615 1.662 7.35 2.395 11.096l-3.46.428Zm-414.034-.393c-4.863-.611-8.383-2.372-13.257-5.416l2.213-2.159c4.271 2.658 7.355 4.253 11.417 4.805l-.373 2.77Zm12.146-6.63-3.118-1.266c1.602-2.498 3.019-5.963 4.211-10.3l3.42.596c-1.273 4.634-2.75 8.222-4.513 10.97Zm-35.677-6.776c-2.789-2.471-5.769-5.317-9.111-8.695l2.75-1.724c3.295 3.331 6.228 6.131 8.965 8.557l-2.604 1.862Zm-177.242-2.285-3.436-.532a185.582 185.582 0 0 1 3.05-11.019l3.4.67a180.84 180.84 0 0 0-3.014 10.881Zm609.602-5.861a244.237 244.237 0 0 0-3.324-10.842l3.384-.712a248.53 248.53 0 0 1 3.355 10.946l-3.415.608Zm-389.814-7.263-3.472-.356c.537-3.326 1.02-6.967 1.474-11.133l3.488.239c-.459 4.207-.947 7.887-1.49 11.25Zm-60.231-2.263a1252.207 1252.207 0 0 1-8.341-9.081l2.833-1.637c2.539 2.785 5.485 6.012 8.321 9.059l-2.813 1.659Zm256.303-.23c-2.726 0-5.401-.648-7.95-1.926l1.866-2.357c3.83 1.924 7.597 1.929 11.665.393l1.506 2.515c-2.406.913-4.791 1.375-7.087 1.375Zm-409.123-6.002-3.348-.813a170.582 170.582 0 0 1 4.535-10.701l3.282.967a166.669 166.669 0 0 0-4.47 10.547Zm427.656-2.656-2.573-1.889c2.654-2.288 5.5-5.109 8.699-8.628l2.836 1.634c-3.28 3.606-6.212 6.512-8.962 8.883Zm-36.439-1.916c-2.265-2.782-4.511-6.056-6.865-10.013l3.165-1.192c2.286 3.843 4.457 7.013 6.638 9.689l-2.938 1.516Zm204.455-1.234a199.954 199.954 0 0 0-4.472-10.562l3.29-.955a205.123 205.123 0 0 1 4.527 10.688l-3.345.829Zm-459.49-6.126a709.667 709.667 0 0 0-8.401-8.999l2.791-1.681a722.237 722.237 0 0 1 8.436 9.036l-2.826 1.644Zm79.411-2.072-3.494-.181c.266-3.264.535-6.931.825-11.214l3.496.15c-.29 4.293-.561 7.971-.827 11.245Zm-205.877-6.858-3.204-1.125a163.991 163.991 0 0 1 6.147-10.191l3.105 1.289a160.952 160.952 0 0 0-6.048 10.027Zm434.922 0-2.924-1.53c2.489-3.01 5.056-6.2 7.657-9.42l2.946 1.506c-2.607 3.227-5.179 6.42-7.679 9.444Zm-65.919-4.122a296.937 296.937 0 0 1-5.009-10.557l3.292-.945a299.193 299.193 0 0 0 4.968 10.471l-3.251 1.031Zm207.33-1.736a156.707 156.707 0 0 0-5.917-10.072l3.12-1.264a159.735 159.735 0 0 1 6.014 10.238l-3.217 1.098Zm-466.91-3.042a260.348 260.348 0 0 0-9.04-8.539l2.619-1.85a262.696 262.696 0 0 1 9.148 8.638l-2.727 1.751Zm98.011-6.726-3.496-.141c.235-3.722.47-7.446.72-11.235l3.496.146c-.25 3.789-.485 7.511-.72 11.23Zm242.843-3.23-2.92-1.536a336.206 336.206 0 0 1 7.997-9.313l2.852 1.618c-2.434 2.715-5.028 5.737-7.929 9.231Zm-437.286-.786-2.951-1.499c2.75-3.427 5.588-6.526 8.43-9.204l2.674 1.798c-2.742 2.584-5.484 5.581-8.153 8.905Zm346.327-5.668c-1.604-3.744-3.18-7.491-4.508-10.661l3.321-.881c1.328 3.166 2.899 6.907 4.503 10.644l-3.316.898Zm-268.56-.196c-3.577-2.772-7.097-5.22-10.458-7.28l2.135-2.208c3.467 2.124 7.089 4.644 10.765 7.49l-2.442 1.998Zm472.861-.118a117.06 117.06 0 0 0-7.817-9.158l2.792-1.681a119.182 119.182 0 0 1 8.01 9.382l-2.985 1.457ZM88.657 244.314l-2.124-2.216c4.18-2.537 8.532-4.367 12.933-5.44l1.026 2.663c-4.005.977-7.987 2.656-11.835 4.993Zm435.684-.853-2.719-1.753c3.283-3.225 6.395-5.997 9.511-8.48l2.476 1.968c-3.029 2.414-6.061 5.117-9.268 8.265Zm-257.712-1.093-3.493-.166c.302-4.051.605-7.728.921-11.242l3.491.198a741.063 741.063 0 0 0-.919 11.21Zm-140.211-.584c-4.367-1.731-8.664-2.834-12.771-3.281l.475-2.76c4.485.489 9.145 1.681 13.854 3.548l-1.558 2.493Zm478.07-4.503c-3.371-2.747-6.86-5.173-10.372-7.209l2.062-2.253c3.671 2.127 7.308 4.657 10.814 7.516l-2.504 1.946Zm-196.453-3.472c-1.74-4.145-3.178-7.525-4.516-10.636l3.311-.903c1.343 3.119 2.781 6.504 4.524 10.656l-3.319.883Zm136.052-5.725-2.007-2.282c4.305-2.397 8.655-4.172 12.926-5.278l1.08 2.649c-3.94 1.021-7.979 2.673-11.999 4.911Zm38.197-3.413c-4.336-1.456-8.725-2.356-13.045-2.678l.326-2.774c4.675.348 9.413 1.318 14.079 2.883l-1.36 2.569Zm-313.617-4.698-3.488-.247c.435-3.91.91-7.684 1.411-11.22l3.478.311a386.004 386.004 0 0 0-1.401 11.156Zm130.194-7.397a466.583 466.583 0 0 0-4.873-10.5l3.269-.994a483.056 483.056 0 0 1 4.9 10.554l-3.296.94Zm-127.008-14.87-3.465-.398c.707-3.9 1.487-7.651 2.314-11.15l3.441.514a211.218 211.218 0 0 0-2.29 11.034Zm116.935-6.031a260.57 260.57 0 0 0-5.636-10.241l3.178-1.169a261.581 261.581 0 0 1 5.693 10.341l-3.235 1.069Zm-111.675-15.901-3.397-.675c1.221-3.89 2.567-7.555 3.999-10.891l3.314.9c-1.401 3.262-2.719 6.85-3.916 10.666Zm99.821-4.338a143.236 143.236 0 0 0-6.989-9.63l2.958-1.488a147.205 147.205 0 0 1 7.126 9.812l-3.095 1.306ZM286.289 154.9l-3.139-1.234c2.299-3.707 4.848-6.984 7.577-9.741l2.75 1.723c-2.581 2.607-4.999 5.718-7.188 9.252Zm75.63-2.13c-3.058-3.051-6.218-5.754-9.385-8.034l2.348-2.068c3.309 2.382 6.596 5.196 9.774 8.364l-2.737 1.738Zm-58.676-14.34-1.887-2.347c4.146-2.112 8.717-3.487 13.581-4.083l.532 2.752c-4.381.539-8.493 1.776-12.226 3.678Zm38.247-.003a49.889 49.889 0 0 0-12.626-3.556l.613-2.742a53.883 53.883 0 0 1 13.675 3.845l-1.662 2.453Z"/>
    <path fill="#7AC7C4" fill-opacity=".7" d="M689.325 458.231c-29.804-3.503-24.943 28.135-67.426 28.135-38.843 0-51.272-120.486-79.533-86.043-144.888 176.568-60.756-75.09-175.981-78.288-52.102-1.447-86.822 42.592-99.623 120.566-18.558 70.49-61.598-53.765-105.891-42.211-28.15 7.343-24.927 85.976-63.77 85.976-42.483 0-37.62-31.638-67.426-28.135C-2.415 462-12 518-12 518h743s-9.586-56-41.675-59.769Z"/>
    <path fill="#E1ECEF" fill-opacity=".7" d="M662.972 489.192c-27.403-1.654-22.933 13.288-61.994 13.288-35.715 0-34.734-33.492-58.634-40.61-44.014-13.107-80.299 53.233-97.362 19.939-32.408-88.347-126.931-132.651-170.536 0-17.063 33.294-56.967-26.115-97.361-19.939-24.864 3.803-22.919 40.61-58.634 40.61-39.062 0-34.591-14.942-61.994-13.288-29.506 1.782-38.318 28.231-38.318 28.231h683.154c-.003 0-8.815-26.449-38.321-28.231Z"/>
    <path fill="#7AB9C7" d="M-11.577 517.423s-4.657 15.914 16.927 19.899c29.521 5.448 202.807 19.767 160.712 30.647-23.765 6.142 12.132 14.483 127.881 17.552 115.748 3.072 314.364-8.962 247.573-26.765-66.791-17.803 185.667 1.231 189.487-41.333h-742.58Z"/>
    <path fill="#2B478B" d="M303.094 361.045v171.179c0 8.594 31.3 15.563 69.911 15.563 38.612 0 69.911-6.969 69.911-15.563V361.045H303.094Z"/>
    <path fill="#233862" d="M373.005 376.608c38.611 0 69.911-6.968 69.911-15.563 0-8.596-31.3-15.564-69.911-15.564-38.611 0-69.911 6.968-69.911 15.564 0 8.595 31.3 15.563 69.911 15.563Z"/>
    <path fill="#2B478B" d="M319.717 298.73v55.742c0 6.553 23.858 11.864 53.288 11.864 29.43 0 53.289-5.311 53.289-11.864V298.73H319.717Z"/>
    <path fill="#233862" d="M373.005 310.594c29.431 0 53.289-5.312 53.289-11.864 0-6.552-23.858-11.864-53.289-11.864-29.43 0-53.288 5.312-53.288 11.864 0 6.552 23.858 11.864 53.288 11.864Zm35.551 177.477c19.637-19.642 19.637-51.488 0-71.13-19.637-19.642-51.474-19.642-71.111 0-19.637 19.642-19.637 51.488 0 71.13 19.637 19.642 51.474 19.642 71.111 0Z"/>
    <path fill="#D4E8FF" d="M405.856 454.594h-65.704a2.087 2.087 0 1 1 0-4.176h65.704a2.087 2.087 0 1 1 0 4.176Zm0-16.116h-65.704a2.087 2.087 0 1 1 0-4.176h65.704a2.087 2.087 0 1 1 0 4.176Zm0 32.23h-65.704a2.087 2.087 0 1 1 0-4.176h65.704a2.087 2.087 0 1 1 0 4.176Z"/>
    <path fill="#2B478B" d="m578.569 525.492-70.048-14.955c-8.072-1.723-13.221-9.667-11.496-17.742l28.31-132.559c1.724-8.074 9.668-13.225 17.74-11.501l70.048 14.954c8.073 1.724 13.221 9.668 11.496 17.742l-28.31 132.559c-1.723 8.077-9.665 13.226-17.74 11.502Z"/>
    <path fill="#EE5463" d="M548.745 384.201c-.002-.003-5.866-10.179-5.853-10.182l10.755-6.192c4.357-2.706 10.196 1.688 8.696 6.563a5.866 5.866 0 0 1-2.74 3.565c-.002-.001-10.856 6.258-10.858 6.246Z"/>
    <path fill="#fff" d="M529.85 388.256a5.876 5.876 0 0 1 2.184-7.984l10.85-6.249c.014-.006 5.866 10.177 5.86 10.182-4.981 2.112-14.406 11.561-18.894 4.051Z"/>
    <path fill="#EE5463" d="M600.977 395.263c-.001-.002-5.866-10.178-5.853-10.181l10.755-6.192c4.357-2.706 10.197 1.688 8.697 6.563a5.868 5.868 0 0 1-2.741 3.565c-.002-.001-10.856 6.258-10.858 6.245Z"/>
    <path fill="#fff" d="M582.082 399.319a5.877 5.877 0 0 1 2.184-7.984l10.85-6.249c.013-.007 5.867 10.177 5.86 10.182-4.981 2.112-14.406 11.561-18.894 4.051Z"/>
    <path fill="#EE5463" d="M526.514 489.123c-.001-.003-5.865-10.179-5.853-10.181l10.755-6.193c4.358-2.706 10.197 1.688 8.697 6.564a5.863 5.863 0 0 1-2.741 3.564c-.003.001-10.856 6.258-10.858 6.246Z"/>
    <path fill="#fff" d="M507.619 493.181a5.879 5.879 0 0 1 2.184-7.985l10.85-6.248c.013-.007 5.867 10.177 5.86 10.181-4.981 2.112-14.406 11.561-18.894 4.052Z"/>
    <path fill="#EE5463" d="M578.745 500.185c-.002-.002-5.866-10.179-5.853-10.181l10.755-6.192c4.357-2.706 10.196 1.687 8.696 6.563a5.863 5.863 0 0 1-2.74 3.565c-.003.001-10.856 6.258-10.858 6.245Z"/>
    <path fill="#fff" d="M559.85 504.242a5.877 5.877 0 0 1 2.184-7.985l10.85-6.249c.012-.007 5.866 10.177 5.86 10.182-4.98 2.115-14.407 11.563-18.894 4.052Z"/>
    <path fill="#EE5463" d="M533.926 454.148c-.001-.003-5.865-10.179-5.853-10.181l10.755-6.192c4.358-2.706 10.197 1.687 8.697 6.563a5.868 5.868 0 0 1-2.741 3.565c-.002.001-10.855 6.258-10.858 6.245Z"/>
    <path fill="#fff" d="M515.032 458.207a5.878 5.878 0 0 1 2.184-7.985l10.849-6.249c.013-.007 5.867 10.177 5.86 10.182-4.981 2.112-14.408 11.56-18.893 4.052Z"/>
    <path fill="#EE5463" d="M586.157 465.211c-.002-.003-5.866-10.179-5.853-10.181l10.755-6.193c4.357-2.706 10.196 1.688 8.696 6.564a5.858 5.858 0 0 1-2.74 3.564c-.003.002-10.858 6.258-10.858 6.246Z"/>
    <path fill="#fff" d="M567.262 469.269a5.877 5.877 0 0 1 2.184-7.984l10.85-6.249c.012-.007 5.866 10.177 5.86 10.182-4.981 2.112-14.406 11.561-18.894 4.051Z"/>
    <path fill="#EE5463" d="M541.336 419.175c-.001-.002-5.865-10.178-5.852-10.181l10.754-6.192c4.358-2.706 10.197 1.688 8.697 6.563a5.87 5.87 0 0 1-2.74 3.565c-.002-.001-10.856 6.258-10.859 6.245Z"/>
    <path fill="#fff" d="M522.44 423.231a5.876 5.876 0 0 1 2.184-7.984l10.85-6.249c.012-.007 5.866 10.177 5.86 10.182-4.981 2.112-14.407 11.561-18.894 4.051Z"/>
    <path fill="#EE5463" d="M593.567 430.236c-.001-.003-5.866-10.179-5.853-10.181l10.755-6.192c4.357-2.706 10.196 1.687 8.696 6.563a5.863 5.863 0 0 1-2.74 3.565c-.003.001-10.856 6.258-10.858 6.245Z"/>
    <path fill="#fff" d="M574.672 434.294a5.877 5.877 0 0 1 2.184-7.984l10.85-6.249c.012-.007 5.866 10.177 5.86 10.182-4.981 2.112-14.406 11.561-18.894 4.051Z"/>
    <path fill="#91CECF" fill-opacity=".45" d="M545.459 509.632a2.243 2.243 0 0 1-1.729-2.659l29.801-140.649a2.243 2.243 0 0 1 4.387.929l-29.8 140.647a2.242 2.242 0 0 1-2.659 1.732Z"/>
    <path fill="#EE5463" d="m471.698 313.754-2.505-19.384c-1.987-13.482-22.069-10.89-20.564 2.66l2.501 19.345c-8.745 4.823-14.33 14.739-12.91 25.39l23.151 179.1c4.678 33.249 56.35 26.471 52.415-6.779l-23.15-179.1c-1.323-10.784-9.286-18.752-18.938-21.232Z"/>
    <path fill="#EEF7FF" d="m492.373 511.795-10.879 1.407L453.47 296.4a5.486 5.486 0 0 1 4.735-6.144 5.485 5.485 0 0 1 6.142 4.737l28.026 216.802Z"/>
    <path fill="#1D3F70" d="m482.013 331.341-12.773 1.651.23 1.777 12.773-1.651-.23-1.777Zm-5.486 7.806-6.386.826.229 1.775 6.387-.826-.23-1.775Zm1.805 13.965-6.387.825.23 1.775 6.386-.826-.229-1.774Zm1.805 13.961-6.387.826.23 1.776 6.386-.825-.229-1.777Zm1.804 13.963-6.386.825.229 1.775 6.387-.826-.23-1.774ZM483.746 395l-6.387.826.23 1.774 6.386-.826-.229-1.774Zm1.805 13.961-6.387.826.229 1.774 6.387-.825-.229-1.775Zm1.804 13.964-6.386.826.229 1.775 6.387-.826-.23-1.775Zm1.805 13.962-6.387.825.23 1.775 6.386-.826-.229-1.774Zm-5.342-91.584-12.773 1.651.229 1.775 12.774-1.652-.23-1.774Zm1.803 13.963-12.773 1.652.229 1.775 12.773-1.652-.229-1.775Zm1.804 13.963-12.773 1.652.23 1.777 12.773-1.652-.23-1.777Zm1.805 13.963-12.773 1.652.23 1.776 12.773-1.651-.23-1.777Zm1.805 13.963-12.773 1.652.229 1.774 12.773-1.651-.229-1.775Zm3.607 27.926-12.773 1.651.229 1.775 12.774-1.652-.23-1.774Zm1.805 13.962-12.773 1.652.229 1.775 12.773-1.652-.229-1.775Zm-5.482 7.806-6.387.826.229 1.775 6.387-.826-.229-1.775Zm1.802 13.965-6.386.826.229 1.774 6.387-.826-.23-1.774Zm5.485-7.808-12.773 1.652.229 1.774 12.773-1.651-.229-1.775Zm1.802 13.963-12.773 1.652.23 1.774 12.773-1.651-.23-1.775Zm-5.48 7.806-6.386.826.229 1.774 6.386-.825-.229-1.775Zm7.287 6.156-12.773 1.652.229 1.774 12.773-1.651-.229-1.775Zm-9.022-69.814-12.773 1.652.23 1.774 12.773-1.651-.23-1.775Z"/>
    <path fill="#233862" d="M491.151 500.778a5961.262 5961.262 0 0 1-7.55-60.322c-.381-3.119-3.784-5.004-6.878-4.311-2.903.375-4.963 2.961-4.599 5.776l7.795 60.303c-5.499 2.613-9.534 8.065-8.659 15.919 3.021 20.539 34.603 16.458 32.305-4.177-1.171-7.949-6.304-12.149-12.414-13.188Z"/>
    <path fill="#EE5463" d="M284.499 582.668c0-.002 4.565-18.385 4.584-18.374l19.413 4.834c8.085 1.729 9.957 13.366 2.762 17.354a9.443 9.443 0 0 1-7.168 1.074c0-.002-19.604-4.871-19.591-4.888Z"/>
    <path fill="#fff" d="M258.019 566.245c1.296-5.037 6.41-8.092 11.461-6.834l19.587 4.877c.021.007-4.566 18.385-4.578 18.385-8.144-3.119-29.652-2.684-26.47-16.428Z"/>
    <path fill="#EE5463" d="M539.722 561.883c0-.002-3.956-18.526-3.934-18.525l19.567-4.165c8.025-1.99 14.809 7.649 10.09 14.387a9.44 9.44 0 0 1-5.971 4.107c-.001-.001-19.755 4.216-19.752 4.196Z"/>
    <path fill="#fff" d="M508.722 558.73c-1.043-5.095 2.215-10.083 7.305-11.167l19.742-4.203c.023-.003 3.957 18.526 3.946 18.531-8.687.767-27.828 10.587-30.993-3.161Z"/>
    <path fill="#F99746" d="M456.477 543.462v8.591c0 6.932-11.966 12.552-26.731 12.552-7.446 0-14.181-1.43-19.028-3.736-4.762-2.266-7.702-5.381-7.702-8.816v-8.591h53.461Z"/>
    <path fill="#EFCBAB" d="M456.477 543.462c-.25 15.022-50.249 18.21-53.355 1.12a7.11 7.11 0 0 1-.103-1.82c.742-9.948 23.3-14.068 38.899-10.491 7.717 1.77 13.734 5.425 14.559 11.191Z"/>
    <path fill="#F39200" d="m441.996 532.301-23.454 23.482c-.609-.121-1.068-.474-1.651-.617l22.961-23.339c.609.123 1.559.333 2.144.474Z"/>
    <path fill="#662948" d="M374.325 191.715s3.317-6.208 13.423-4.377c10.108 1.834 12.494 14.265 15.924 19.923 7.267 11.986 9.443 24.723 5.669 30.841-4.193 6.795-13.453 4.137-26.973 2.92-14.43-1.301-20.476-13.439-11.499-30.13l3.456-19.177Z"/>
    <path fill="#fff" d="M378.515 220.58c0 .005-.005.005-.008.012-.022.037-.083.132-.183.284-1.496 2.323-11.079 17.669-11.673 30.222a19.43 19.43 0 0 1-.665 4.186l-2.469-.178c-1.107-.079-2.231-.159-3.346-.24-3.437-.244-6.725-.482-8.798-.628-1.347-10.028 12.372-30.589 24.881-33.025v-.005c.004 0 .007-.005.012-.005 1.337-.435 2.17-.613 2.249-.623Z"/>
    <path fill="#F99370" d="m319.902 371.574 20.099-.213c-.052-3.113-.907-9.399-.269-12.952l-8.676 1.086c.24 1.706.775 5.408-2.149 6.293-3.786 1.147-7.908.795-10.272 3.619-.613.947.113 2.179 1.267 2.167Z"/>
    <path fill="#EE5463" d="M340.591 369.478c-.076.661-.255 1.301-.59 1.883l-20.294.215c-.988.01-1.711-.924-1.396-1.829.746-2.117 3.388-5.205 12.736-5.778 0 0 3.271.744 8.492-.229.003 0 1.36 3.063 1.052 5.738Z"/>
    <path fill="#E8C0A6" d="M324.279 368.989a.412.412 0 0 1-.379-.244c-.765-1.771-2.112-2.301-2.169-2.323-1.075-1.587 1.995-.482 2.927 2.015.117.254-.096.557-.379.552Zm3.191-.408a.411.411 0 0 1-.391-.276c-.682-2.052-2.542-2.986-2.562-2.993-.982-1.849 2.592.102 3.344 2.748.088.252-.119.526-.391.521Zm3.629-.472a.408.408 0 0 1-.386-.264c-.792-2.13-2.579-3.277-2.596-3.289-.763-1.939 2.491.386 3.368 3.017.101.255-.107.541-.386.536Z"/>
    <path fill="#395B96" d="m318.324 369.715 22.267-.237c-.075.66-.254 1.301-.589 1.883l-20.294.215c-1.003.012-1.731-.951-1.384-1.861Z"/>
    <path fill="#FCB4B4" d="M383.574 297.204c-9.893-.403-27.125-5.682-34.559 6.514-8.138 13.321-6.145 41.583-5.322 55.241-10.858 3.389-16.698 0-16.698 0-4.628-27.958-19.862-91.64 31.087-82.805 0-.003 34.167-.003 34.167-.003 5.716 11.292.604 20.862-8.675 21.053Z"/>
    <path fill="#F99370" d="m344.003 371.574 20.099-.213c-.052-3.113-.907-9.399-.269-12.952l-8.676 1.086c.24 1.706.843 5.408-2.149 6.293-3.794 1.123-7.908.795-10.272 3.619-.616.947.11 2.179 1.267 2.167Z"/>
    <path fill="#EE5463" d="M364.692 369.476c-.073.66-.254 1.301-.589 1.883l-20.295.215c-.987.01-1.711-.924-1.395-1.829.745-2.118 3.388-5.206 12.736-5.781 0 0 3.275.846 8.497-.127 0 .003 1.352 2.966 1.046 5.639Z"/>
    <path fill="#E8C0A6" d="M348.38 368.989a.413.413 0 0 1-.379-.244c-.762-1.771-2.112-2.301-2.168-2.323-1.076-1.587 1.995-.482 2.926 2.015.117.254-.093.557-.379.552Zm3.19-.408a.41.41 0 0 1-.391-.276c-.682-2.052-2.543-2.986-2.562-2.993-.983-1.849 2.591.102 3.344 2.748.088.252-.117.523-.391.521Z"/>
    <path fill="#D1E0F2" d="M368.428 231.613s-7.568 6.32-10.047 14.556c-2.002 6.648 4.902 4.658 6.136 1.007 1.235-3.653 3.911-15.563 3.911-15.563Z"/>
    <path fill="#E8C0A6" d="M355.199 368.109a.41.41 0 0 1-.387-.264c-.792-2.13-2.578-3.277-2.596-3.289-.762-1.939 2.491.386 3.369 3.017.1.255-.108.541-.386.536Z"/>
    <path fill="#395B96" d="m342.425 369.713 22.267-.237c-.073.66-.254 1.301-.589 1.883l-20.295.215c-1.002.014-1.728-.949-1.383-1.861Z"/>
    <path fill="#F49F9F" d="m360.864 276.151-2.923 20.647c-12.775 4.878-13.697 17.918-14.861 32.584-5.918-22.659-5.402-45.575 17.784-53.231Z"/>
    <path fill="#FCB4B4" d="M396.45 298.16c-10.353 6.177-20.693-.562-27.973 13.683-5.877 12.473-2.581 36.309-.968 47.116-10.859 3.389-16.699 0-16.699 0-6.439-24.117-21.165-80.165 20.449-82.805 11.394-.352 26.369-.255 36.441-.844 0 0 2.796 14.471-11.25 22.85Z"/>
    <path fill="#EE5463" d="M407.901 269.605c.883 6.109-.398 13.209-.398 13.209-13.452-4.144-25.682-4.528-46.116-7.294 12.904-37.467-16.987-11.25 17.131-54.945.081.007 8.475-.147 8.475-.147 9.595 6.994 15.745 17.151 20.908 49.177Z"/>
    <path fill="#fff" d="M378.502 220.59c-.022.036-.083.132-.183.283-1.496 2.323-11.079 17.669-11.673 30.223a19.5 19.5 0 0 1-.664 4.186c-3.159 11.849-16.628 22.065-26.037 28.266-10.495 6.922-14 21.375-12.573 35.369 0 0-.836.125-2.053.196-1.782.107-4.378.1-6.385-.572 0 0-2.537-16.742 2.305-27.061 4.838-10.324 15.484-16.114 28.604-20.014.491-.144.958-.303 1.403-.469 5.138-1.92 7.426-5.179 8.372-8.764v-.005c.638-2.411.665-4.968.55-7.364-.095-2.008-.298-3.905-.327-5.502-.11-5.661 4.569-13.82 13.753-23.733a153.959 153.959 0 0 1 4.908-5.039Zm31.626 53.463c-.237 4.869-.846 9.602-2.083 13.647-3.232 10.575-13.917 13.72-24.739 17.182-10.822 3.46-11.122 14.035-11.122 14.035-4.647 1.125-10.827.702-14.233.33-1.544-.171-2.517-.33-2.517-.33 2.205-26.828 17.529-32.347 25.711-39.692 8.182-7.343 1.428-22.361 1.55-33.061.115-10.363 4.048-24.802 4.295-25.694l.012-.044c.599.23 1.184.467 1.751.716 15.686 6.815 19.95 20.721 20.702 30.553.482 6.291 1.061 14.507.673 22.358Z"/>
    <path fill="#D1E0F2" d="M386.614 231.51c-1 5.372-1.927 11.363-1.812 14.656.237 6.925 4.77 21.833 2.049 29.985-2.721 8.152-13.372 9.666-20.771 19.985-7.4 10.323-8.129 23.111-8.129 23.111-1.544-.171-2.517-.33-2.517-.33 2.205-26.828 17.529-32.347 25.711-39.692 8.182-7.343 1.428-22.361 1.55-33.061.115-10.363 4.048-24.802 4.295-25.694l.012-.044c.631.012 1.259.044 1.888.103-.027.115-.076.325-.137.613a288.902 288.902 0 0 0-2.139 10.368Zm-8.099-10.93c0 .005-.005.005-.007.012-.022.037-.083.132-.183.284-1.497 2.323-11.079 17.669-11.673 30.222a19.43 19.43 0 0 1-.665 4.186c-3.158 11.849-16.628 22.065-26.037 28.266-10.494 6.923-14 21.376-12.572 35.37 0 0-.836.124-2.053.195-2.575-17.676 4.649-31.789 10.624-35.689 3.415-2.23 9.929-7.546 15.3-12.427 4.024-3.655 7.409-7.069 8.372-8.763v-.005c1.325-2.33 2.826-4.793 3.895-7.125.74-1.619 1.271-3.177 1.383-4.583.272-3.423.137-8.636 3.528-15.433 1.689-3.392 3.635-6.844 5.165-9.461 1.54-2.636 2.66-4.418 2.66-4.418l.012-.008c1.339-.435 2.173-.613 2.251-.623Z"/>
    <path fill="#163260" d="M325.323 278.296h45.222l-9.004-32.13h-44.947l8.729 32.13Z"/>
    <path fill="#234270" d="M370.544 278.137h-45.222v2.181h45.222v-2.181Z"/>
    <path fill="#0B274F" d="M360.863 246.166h1.619l8.819 31.971h21.461v2.181h-22.969v-1.951l-8.93-32.201Z"/>
    <path fill="#F99370" d="m378.721 217.665-.205 2.91s-.156 1.677.049 3.013c.379 2.467 2.97 3.259 4.737 1.794 1.651-1.369 3.689-4.954 3.689-4.954s-.012-1.684.145-2.858l-8.415.095Z"/>
    <path fill="#E57D61" d="M388.784 209.332c-.034.14-.073.279-.122.413-.181-.141-1.213 4.703-1.587 8.395-3.613 2.051-7.79 1.777-8.507 1.565.193-5.463.668-13.639 5.007-15.163 2.911-.897 5.996 1.885 5.209 4.79Z"/>
    <path fill="#662948" d="M377.839 191.336c-10.908-1.269-12.636 15.419-5.224 21.559l5.224-21.559Z"/>
    <path fill="#FFB27D" d="M390.698 203.095c.525 3.643.56 7.917-1.538 11.059l-.005.003c-5.737 9.096-24.726 3.232-19.524-7.554.765-1.376 1.195-3.049 1.251-4.469.172-14.899 18.295-11.774 19.816.961Z"/>
    <path fill="#C16256" d="M376.349 205.034c-.521-.507.31-1.284.816-.766.519.506-.313 1.286-.816.766Zm-4.797.618c-.521-.506.31-1.283.816-.765.521.506-.31 1.286-.816.765Zm2.856 4.13c-.958.149-2.349-.093-1.442-1.208.853-.843.951-3.125.954-3.149.004-.267.444-.257.43.015-.005.1-.108 2.467-1.076 3.425-.11.11-.225.257-.144.35.227.261 1.308.305 1.929-.113a.22.22 0 0 1 .298.052c.159.435-.616.53-.949.628Z"/>
    <path fill="#E57D61" d="M390.696 203.095c.525 3.643.56 7.917-1.538 11.059l-.005.003c.968-2.355.604-6.869.604-6.869l-1.337-1.655c-13.672-.179-15.682-10.177-15.682-10.177 6.007-7.827 17.244-.76 17.958 7.639Z"/>
    <path fill="#662948" d="M373.785 194.197s2.034 9.844 14.408 10.44l3.315-3.33c1.54-8.568-8.969-17.343-17.723-7.11Z"/>
    <path fill="#F99370" d="M393.527 204.168c.44 4.169-4.994 4.646-5.336.47-.437-4.167 4.994-4.646 5.336-.47Z"/>
    <path fill="#C16256" d="M392.249 203.09c-.553-1.653-3.833.112-2.437.173.005-.073 1.459-.917 1.911-.185-1.432.655-1.909 3.242-1.08 2.406.002-.015.173-1.49 1.3-2.047.56 3.768 1.069 1.157.306-.347Z"/>
    <path fill="#F4D4BE" d="M391.863 206.657c.193.577-.746.856-.922.274-.19-.574.748-.856.922-.274Z"/>
    <path fill="#F49F9F" d="M343.355 354.267c.179 2.924.338 4.692.338 4.692-10.859 3.389-16.699 0-16.699 0s-.222-1.494-.689-4.025c.132.062 6.879 3.343 17.05-.667Zm24.154 4.692c-10.859 3.389-16.699 0-16.699 0s-.364-1.354-.98-3.694c0 0 5.987 3.017 17.112 0 .327 2.313.567 3.694.567 3.694Z"/>
    <path fill="#C16256" d="M378.128 203.347a.263.263 0 0 1-.149-.049c-1.364-1.035-2.606-.7-2.658-.685a.245.245 0 0 1-.303-.159.235.235 0 0 1 .162-.293c.061-.018 1.525-.428 3.097.762a.23.23 0 0 1 .041.331.236.236 0 0 1-.19.093Zm-7.141.567a.242.242 0 0 1-.137-.042.231.231 0 0 1-.066-.328c.032-.046.79-1.117 2.054-1.07a.235.235 0 1 1-.02.471c-.992-.031-1.626.854-1.63.864a.244.244 0 0 1-.201.105Zm5.254 8.096c-.318 0-.596-.11-.775-.333-.376-.474-.127-1.252.567-1.773.697-.52 1.538-.56 1.914-.085.377.474.127 1.252-.567 1.773-.369.276-.78.418-1.139.418Zm.931-2.047c-.242 0-.547.098-.84.315-.504.379-.658.891-.48 1.113.179.223.726.208 1.232-.171.504-.379.658-.89.482-1.113-.078-.093-.22-.144-.394-.144Z"/>
    <path fill="#FFB27D" d="M401.836 227.537c10.423 7.572 15.992 21.202 13.239 33.594-1.056 6.961-5.588 13.583-12.677 15.553-3.501 1.357-19.828 3.538-19.068-2.078.26-1.347 1.492-1.844 2.687-2.203 1.968-.673 3.997-1.416 5.874-2.242 3.361-1.692 7.683-3.274 8.414-6.932 1.557-8.541-2.053-16.892-8.636-22.467.012.008-.032-.024.066.044-8.923-6.445 1.124-19.629 10.101-13.269Z"/>
    <path fill="#fff" d="M410.127 274.053c-.648.382-1.332.751-2.041 1.106-5.161 2.591-10.338 2.997-14.203 3.134 0 0 .892-5.589-3.273-7.89 19.654-14.478-1.247-22.911-2.846-37.076-.626-5.539 1.122-12.796 1.122-12.796 24.013 2.201 48.314 37.7 21.241 53.522Z"/>
    <path fill="#FFB27D" d="M373.371 278.137s2.014-6.825 14.037-6.04l2.517 6.04h-16.554Z"/>
    <path fill="#D1E0F2" d="M396.67 278.107c-1.718.186-2.789.189-2.789.189s.892-5.59-3.276-7.891c0 0 1.027-.645 2.367-1.792 0 0 4.569 3.249 3.698 9.494Z"/>
    <path fill="#E57D61" d="M374.026 278.068c-2.137.064 5.642-5.108 7.961-3.844a.334.334 0 0 1-.305.365c-4.376.442-7.287 3.465-7.656 3.479Zm3.295.115c-1.621-.67 3.415-1.821 5.908-2.474a.342.342 0 0 1 .404.256.332.332 0 0 1-.267.392c-2.654.533-5.776 1.799-6.045 1.826Z"/>
    <path fill="#D1E0F2" d="M392.521 270.263a.57.57 0 0 1-.447-.21.545.545 0 0 1 .093-.78c7.666-5.898 6.991-13.351 4.669-16.925-2.53-3.893-6.909-11.011-6.953-11.082a.545.545 0 0 1 .198-.76.582.582 0 0 1 .785.193c.044.071 4.415 7.179 6.938 11.059 2.542 3.91 3.329 12.035-4.926 18.385a.59.59 0 0 1-.357.12Zm3.132 7.957a.566.566 0 0 1-.569-.514.558.558 0 0 1 .528-.594c.093-.007 9.397-.711 13.679-3.21a.582.582 0 0 1 .785.19.543.543 0 0 1-.196.761c-4.517 2.633-13.792 3.337-14.185 3.364-.012.003-.027.003-.042.003Z"/>
    <path fill="#213360" d="M100.621 391.315v123.874c0 3.899 13.455 7.061 30.053 7.061 16.597 0 30.053-3.162 30.053-7.061V391.315h-60.106Z"/>
    <path fill="#F99746" d="M153.539 386.473c-5.894-1.497-13.961-2.421-22.864-2.421s-16.971.924-22.865 2.421H98v6.053c0 4.68 14.629 8.473 32.675 8.473 18.045 0 32.675-3.793 32.675-8.473v-6.053h-9.811Z"/>
    <path fill="#F4B178" d="M130.675 394.947c18.046 0 32.675-3.794 32.675-8.474 0-4.679-14.629-8.473-32.675-8.473S98 381.794 98 386.473c0 4.68 14.629 8.474 32.675 8.474Z"/>
    <path fill="#EE5463" d="m126.962 505.985-9.415-.702h-.008l-9.5-.708a4.469 4.469 0 0 0-4.786 4.091c-.385 6.648 9.585 4.731 13.623 5.534.002 0 .004-.004.004-.004-.004.008 9.502.712 9.504.712a4.463 4.463 0 0 0 3.249-1.071c3.027-2.429 1.228-7.693-2.671-7.852Z"/>
    <path fill="#EE5463" d="m150.217 504.278-9.102 2.51-.008.002-9.184 2.532a4.473 4.473 0 0 0-3.13 5.465c1.874 6.39 10.617 1.227 14.69.622.002 0 .002-.006.002-.004 0 .01 9.187-2.53 9.187-2.53a4.46 4.46 0 0 0 2.699-2.103c2.037-3.304-1.428-7.656-5.154-6.494Zm-2.913-9.771c-3.161-5.858-10.642 1.007-14.498 2.444l-.002.006c-.002-.01-8.462 4.384-8.462 4.384a4.458 4.458 0 0 0-2.202 2.616c-1.305 3.658 2.989 7.195 6.392 5.282l8.382-4.348a.015.015 0 0 0 .008-.004l8.457-4.386a4.468 4.468 0 0 0 1.925-5.994Z"/>
    <path fill="#EE5463" d="m121.327 492.649-.006.002c.006-.008-9.024-3.058-9.026-3.06a4.443 4.443 0 0 0-3.413.228c-3.538 1.596-3.11 7.142.625 8.269l8.944 3.029c.002.002.006.002.008.002l9.022 3.054a4.47 4.47 0 0 0 5.655-2.768c2.033-6.341-8.1-6.972-11.809-8.756Zm23.686-2.521-.006.002c.008-.007-8.371-4.556-8.371-4.556a4.45 4.45 0 0 0-3.4-.359c-3.76.968-4.284 6.506-.795 8.255l8.296 4.512.008.004 8.368 4.551a4.469 4.469 0 0 0 6.045-1.761c3.082-5.905-6.795-8.258-10.145-10.648Z"/>
    <path fill="#EE5463" d="m134.754 478.89-8.889 3.186-.008.002-8.967 3.214a4.472 4.472 0 0 0-2.713 5.683c2.347 6.23 10.68.428 14.693-.48.002 0 .002-.006.002-.006 0 .01 8.972-3.21 8.974-3.21a4.455 4.455 0 0 0 2.533-2.298c1.783-3.45-1.999-7.529-5.625-6.091Zm11.06-15.76-8.786 3.46-.008.002-8.862 3.49a4.473 4.473 0 0 0-2.535 5.766c2.539 6.153 10.687.097 14.671-.936.002 0 .002-.006.002-.006 0 .01 8.869-3.489 8.869-3.489a4.456 4.456 0 0 0 2.46-2.376c1.676-3.501-2.228-7.461-5.811-5.911Z"/>
    <path fill="#EE5463" d="m131.278 462.722-9.046-2.705-.008-.002-9.127-2.73a4.468 4.468 0 0 0-5.553 2.97c-1.801 6.409 8.348 6.678 12.118 8.326l.004-.002c-.006.008 9.129 2.734 9.129 2.734a4.464 4.464 0 0 0 3.403-.349c3.483-1.721 2.856-7.249-.92-8.242Z"/>
    <path fill="#EE5463" d="m122.028 468.325-7.727 5.427c-.002 0-.004.004-.006.004l-7.796 5.475a4.472 4.472 0 0 0-1.109 6.2c3.915 5.384 10.411-2.419 14.042-4.358v-.006c.002.01 7.799-5.475 7.801-5.475a4.462 4.462 0 0 0 1.834-2.889c.805-3.795-3.923-6.727-7.039-4.378Zm7.478-24.491c-2.322-6.24-10.678-.472-14.696.42-.002 0-.002.006-.002.006 0-.01-8.985 3.174-8.985 3.174a4.463 4.463 0 0 0-2.544 2.287c-1.797 3.442 1.969 7.538 5.602 6.113 0 0 8.902-3.147 8.902-3.149l.008-.002 8.982-3.175a4.473 4.473 0 0 0 2.733-5.674Zm15.176-1.137c2.786-6.047-7.196-7.905-10.661-10.126l-.007.002c.007-.006-8.586-4.134-8.586-4.134a4.448 4.448 0 0 0-3.414-.19c-3.708 1.154-3.954 6.713-.384 8.284l8.51 4.092.008.004 8.584 4.127a4.467 4.467 0 0 0 5.95-2.059Zm-.306 13.428c-1.377-6.514-10.492-2.042-14.596-1.753-.002 0-.004.006-.004.004.002-.01-9.355 1.814-9.355 1.814a4.454 4.454 0 0 0-2.852 1.888c-2.283 3.139.835 7.745 4.639 6.873l9.268-1.801.008-.002 9.351-1.818a4.468 4.468 0 0 0 3.541-5.205Z"/>
    <path fill="#EE5463" d="M133.423 486.399c2.749-6.064-7.245-7.86-10.722-10.061a.02.02 0 0 0-.006.002c.006-.006-8.611-4.081-8.613-4.081a4.459 4.459 0 0 0-3.416-.17c-3.7 1.176-3.913 6.735-.333 8.286l8.534 4.041.008.004 8.61 4.075a4.47 4.47 0 0 0 5.938-2.096Zm14.701-48.522c-4.736-4.679-9.881 4.077-13.149 6.579v.006c-.004-.008-6.809 6.668-6.809 6.668a4.458 4.458 0 0 0-1.341 3.147c-.178 3.88 4.962 6.004 7.656 3.182l6.745-6.61c.002 0 .004-.004.006-.006l6.803-6.668a4.471 4.471 0 0 0 .089-6.298Zm2.186 40.144h-.006c.008-.004-6.63-6.846-6.63-6.846a4.462 4.462 0 0 0-3.14-1.357c-3.877-.198-6.029 4.932-3.22 7.642l6.574 6.781c0 .002.004.004.006.006l6.632 6.841a4.47 4.47 0 0 0 6.295.121c4.699-4.715-4.026-9.908-6.511-13.188Z"/>
    <path fill="#EE5463" d="m156.402 464.187-6.264-7.065c0-.002-.004-.004-.006-.006l-6.322-7.128a4.47 4.47 0 0 0-6.284-.402c-4.908 4.499 3.58 10.074 5.915 13.463h.006c-.008.004 6.32 7.134 6.32 7.134a4.443 4.443 0 0 0 3.075 1.495c3.867.369 6.245-4.661 3.56-7.491Z"/>
    <path fill="#EE5463" d="M157.138 445.17c-5.011-4.384-9.617 4.666-12.727 7.362v.006c-.004-.008-6.394 7.067-6.394 7.067a4.457 4.457 0 0 0-1.148 3.222c.057 3.882 5.315 5.693 7.834 2.714l6.333-7.005c.002 0 .004-.004.006-.006l6.39-7.067a4.477 4.477 0 0 0-.294-6.293Z"/>
    <path fill="#F99370" d="M198.137 544.743c2.81-3.712-.61-20.686-.489-25.023h12.768c.145 4.327-3.062 21.337-.382 25.015.762 1.328-12.662 1.312-11.897.008Zm62.519 5.107h-22.353a2.25 2.25 0 0 1-2.241-2.456c.211-2.312.71-5.487.55-6.957.088-1.355-1.86-18.903-2.007-20.72h14.081l-2.271 18.12a4.512 4.512 0 0 0 3.051 4.848c2.763.911 5.908 1.307 7.986 1.841 2.007.508 3.81 1.205 4.711 2.747.668 1.142-.187 2.577-1.507 2.577Z"/>
    <path fill="#395B96" d="m235.316 547.493.003.024a2.654 2.654 0 0 0 2.637 2.333h22.521c1.29 0 2.236-1.254 1.843-2.483-1.186-3.709-4.905-6.008-15.451-6.93 0 0-3.877 1.155-10.255 0-.002 0-1.71 3.696-1.298 7.056Zm-36.145 2.36h9.822c1.376 0 2.498-1.139 2.434-2.515-.425-9.247-14.332-9.322-14.693.008-.053 1.371 1.064 2.507 2.437 2.507Z"/>
    <path fill="#E8C0A6" d="M255.176 546.659a.503.503 0 0 0 .465-.313c.906-2.237 2.541-2.921 2.611-2.948.601-.232.23-1.178-.369-.932-.085.034-2.092.849-3.169 3.503a.503.503 0 0 0 .462.69Zm-3.894-.47a.503.503 0 0 0 .478-.353c.796-2.574 3.056-3.787 3.08-3.798.578-.291.11-1.197-.462-.89-.107.056-2.65 1.406-3.572 4.391a.501.501 0 0 0 .476.65Zm-4.43-.543c.208 0 .4-.128.473-.337.94-2.704 3.094-4.153 3.118-4.166.545-.35-.016-1.203-.553-.837-.099.067-2.461 1.655-3.511 4.675a.503.503 0 0 0 .473.665Zm-46.378-2.213c3.823-2.162 7.222.671 7.772-.294.449-1.015-4.558-2.536-8.026-.639-.441.238-.238.952.254.933Z"/>
    <path fill="#4867AA" d="M262.358 547.493h-27.042l.003.024a2.654 2.654 0 0 0 2.637 2.333h22.759c1.202 0 2.057-1.184 1.659-2.317a.145.145 0 0 1-.016-.04Zm-63.387 2.359h10.223c1.269 0 2.297-1.05 2.244-2.317 0-.013 0-.026-.003-.04h-14.708l-.003.048c-.045 1.265.981 2.309 2.247 2.309Z"/>
    <path fill="#8C4225" d="M232.424 318.984s1.288-7.256-5.079-9.605l-4.021 3.023 9.1 6.582Z"/>
    <path fill="#fff" d="M243.444 373.188c17.872 13.465 45.841 9.434 56.183-10.15l-2.618-5.444c-29.983 12.892-41.787-12.366-66.114-13.822l4.9 6.254s7.23 22.732 7.649 23.162Z"/>
    <path fill="#233862" d="M196.101 536.99s10.746 2.611 16.285-.195c2.883-18.077 10.882-68.409 13.669-102.9.107 2.012 5.961 83.12 7.075 102.9 3.823 1.28 11.51 2.822 15.809-.276 1.932-20.821 8.136-89.371-1.21-145.358 0 0-25.612 2.849-45.614-3.196-5.504 17.759-6.963 127.714-6.014 149.025Z"/>
    <path fill="#FFB27D" d="M228.114 343.299c.176-5.522.863-16.474-3.618-17.943-3.217-1.118-7.027 1.624-6.036 5.251.292-.184 1.227 10.158.58 13.029-8.491 2.549 17.049 10.928 9.074-.337Z"/>
    <path fill="#E57D61" d="M218.373 330.137c.022.157.051.318.086.47.211-.139.799 5.567.804 9.709 3.89 1.77 8.128 1.077 8.921.914.217-5.716.567-14.276-3.69-15.872-3.035-1.301-6.655 1.468-6.121 4.779Z"/>
    <path fill="#FFB27D" d="M212.26 326.323c.655 4.054 2.023 8.624 5.224 11.307h.005c4.668 3.536 11.505 3.159 16.253-.737h.002c3.663-3.424 4.823-8.034 2.894-11.586-1.261-2.092-3.586-3.936-4.211-6.32-5.434-15.877-22.473-6.999-20.167 7.336Z"/>
    <path fill="#C16256" d="M227.731 323.822c.371-.706-.743-1.273-1.096-.556-.371.705.746 1.272 1.096.556Zm5.16-.866c.371-.706-.743-1.272-1.096-.556-.371.703.746 1.269 1.096.556Z"/>
    <path fill="#E57D61" d="M212.262 326.323c.655 4.054 2.023 8.624 5.224 11.307h.005c.265.222.446.329.737.514-2.436-2.419-3.751-7.51-3.751-7.51l.575-4.394c3.933-3.987 2.239-8.469 2.239-8.469 6.578 1.847 8.793-2.213 8.793-2.213 2.078.267 4.267-.804 4.267-.804-7.484-10.829-20.405.689-18.089 11.569Z"/>
    <path fill="#8C4225" d="M214.28 315.756c2.795 1.106 3.778 7.601-2.83 12.042 0 0-3.201-10.703 2.83-12.042Z"/>
    <path fill="#D1E0F2" d="M294.501 358.623c-1.117 5.5 3.746 6.78 3.746 6.78.927-1.392 1.384-2.368 1.381-2.365l-2.618-5.444s-1.155.388-2.509 1.029Z"/>
    <path fill="#C16256" d="M230.937 328.293c1.122-.014 2.87-.773 1.451-1.769-1.16-.629-2.012-3.031-2.02-3.055-.094-.283-.543-.131-.438.152.037.107.921 2.598 2.236 3.311.908.559-.986 1.099-1.769.821a.23.23 0 0 0-.291.15c-.067.416.542.358.831.39Z"/>
    <path fill="#2B478B" d="M199.549 413.068c13.906 5.783 48.544 6.253 51.905 2.159 6.57-16.222-5.552-59.466-20.56-71.452-.13-.038-1.824-.471-2.776-.471.067.265 1.748 7.259-9.076.334-.061.073-2.64.121-3.326.594.772 11.31-21.223 56.454-16.167 68.836Z"/>
    <path fill="#D1E0F2" d="m244.156 353.479 6.723 24.071c10.484 5.781 28.401 4.594 36.724-1.908-29.791 11.542-32.222-11.268-43.043-22.163h-.404Z"/>
    <path fill="#8C4225" d="M215.367 309.513c2.191-2.598 6.177-3.867 7.088-6.513 0 0 1.352 2.534 1.195 5.364 1.06-1.19 2.033-2.491 2.794-3.886 1.074 1.085 1.649 2.328 1.823 3.605 3.411-.743 6.404.625 6.404.625-1.753 4.958-5.843 6.048-9.052 6.067-2.661 2.55-6.915 3.704-11.027 1.181l-3.962 5.121c-5.624-9.76 4.737-11.564 4.737-11.564Z"/>
    <path fill="#fff" d="M189.277 485.792c10.236 2.892 18.984 2.737 23.387 2.368 1.95-.163 3.046-.366 3.046-.366s3.438-71.076 4.483-86.101c1.686-15.5 2.918-51.323-4.483-57.461l-2.699.462c-17.973 22.313-22.074 130.168-23.734 141.098Zm59.409 2.569s.981.147 2.44.2c2.899.11 7.695-.171 10.374-2.769.342-5.735 4.997-134.609-27.33-141.718l-.002-.003a13.34 13.34 0 0 0-3.273-.296c21.107 19.862 19.875 127.893 17.791 144.586Zm-30.879-154.047c0 .003 11.237 6.703 15.937 2.576 4.147-3.64 4.809-8.025 2.894-11.585 0 0-5.288 1.841-17.236 1.336 0 0 .836 5.391-1.595 7.673Z"/>
    <path fill="#C16256" d="M219.4 326.874c.259.008.318-.393.062-.457l-4.949-1.339c-1.605.518 4.943 1.651 4.887 1.796Zm-1.597 7.672c.219.008.321-.307.128-.425-.141.043-4.828-3.535-4.862-2.953-.35.358 4.571 3.247 4.734 3.378Z"/>
    <path fill="#F99370" d="M209.687 328.37c.996 4.608 6.623 3.418 5.669-1.2-.996-4.605-6.623-3.415-5.669 1.2Z"/>
    <path fill="#C16256" d="M211.147 329.324a.233.233 0 0 0 .222-.299c-.879-2.451.208-3.482 1.862-2.801 1.625-.556-4.128-2.055-2.306 2.937.03.099.123.163.222.163Z"/>
    <path fill="#C16256" d="M213.314 328.998c.702-.099-.631-2.255-2.416-2.402-.302-.027-.331.449-.032.462 1.798.187 2.023 1.881 2.448 1.94Z"/>
    <path fill="#D1E0F2" d="M215.261 357.819c1.162 9.051-7.35 23.649 5.969 27.738l-10.03 2.408-2.798-10.851 6.859-19.295Zm33.425 130.542s.981.147 2.44.2c1.974-18.758 1.421-42.83.975-54.664-.465-12.218-1.951-37.463-6.052-59.706-4.106-22.244-11.879-30.117-11.879-30.117l-.002-.003a13.34 13.34 0 0 0-3.273-.296c21.107 19.862 19.875 127.893 17.791 144.586Zm-50.987-90.227-.174 1.713c7.917 3.91 22.671 1.846 22.671 1.846.149-2.285.296-4.481.435-6.59l-20.859-6.125c-.668 3.661-1.555 5.361-2.073 9.156Z"/>
    <path fill="#D1E0F2" d="M212.664 488.16c1.951-.163 3.046-.366 3.046-.366s3.439-71.076 4.483-86.101c1.686-15.5 2.921-51.323-4.48-57.461l-2.699.462c2.49 1.47 5.918 12.302 5.822 27.383-.128 20.217-2.183 44.756-3.209 61.82-.876 14.63-2.514 45.706-2.963 54.263Z"/>
    <path fill="#C16256" d="M224.801 322.865c.072 0 .139-.04.171-.11.818-1.79 2.739-1.748 2.752-1.745.099-.003.193-.077.195-.182a.188.188 0 0 0-.181-.195c-.024-.002-2.189-.051-3.108 1.964a.191.191 0 0 0 .094.252c.024.01.051.016.077.016Zm7.73-2.168a.188.188 0 0 0 .15-.074.192.192 0 0 0-.038-.265c-.043-.032-1.085-.802-2.795-.195a.187.187 0 0 0-.114.24c.034.099.141.15.24.115 1.51-.534 2.405.115 2.442.142a.204.204 0 0 0 .115.037Z"/>
    <path fill="#D1A68F" d="M215.719 344.229c2.316 2.175 16.44 11.596 15.176-.457-.131-.035-1.825-.468-2.779-.47.067.264 1.16 6.806-9.076.334-.043-.027-2.651.155-3.321.593Z"/>
    <path fill="#F99370" d="M302.25 348.687c1.157.494-1.114 3.233-1.146 4.401 2.111-.679 4.042-1.975 4.058-1.972a82.346 82.346 0 0 0 5.595-6.051c.551-.689 1.67.123 1.171.864a85.67 85.67 0 0 1-4.687 6.558c.016.019.011.013.027.029 2.306-1.456 4.542-3.033 6.639-4.778.26-.217.586-.348.925-.34 2.92.054-5.779 6.586-6.477 7.179.006.011.006.008.011.016a36.052 36.052 0 0 0 6.77-3.75 1.415 1.415 0 0 1 1.072-.251c2.586.5-6.493 6.2-7.398 6.556l.002.032c1.969-.505 3.88-1.245 5.739-2.079.302-.137.642-.177.962-.086 2.613.73-5.87 4.519-6.741 4.789-.911.551-4.245 2.847-9.349 3.63-1.589.243-3.823-3.654-3.075-5.602.425-1.106 1.969-3.587 2.381-4.191.497-1.151 2.06-5.395 3.521-4.954Z"/>
    <path fill="#EE5463" d="M261.812 353.65c.005.005 34.063 27.783 34.026 27.81l-29.364 35.977c-11.633 15.266-37.908 7.678-39.153-11.374a21.919 21.919 0 0 1 4.839-16.113c.005-.002 29.628-36.341 29.652-36.3Z"/>
    <path fill="#fff" d="M322.485 314.305c9.287 7.705 10.634 21.468 2.995 30.827l-29.623 36.296c-.037.037-34.063-27.781-34.052-27.808 14.609-14.009 34.99-59.6 60.68-39.315Z"/>
    <path fill="#FFB27D" d="M245.072 382.702c.791.979-2.495 2.336-3.072 3.355 2.185.387 4.499.147 4.51.157a82.788 82.788 0 0 0 7.775-2.728c.809-.351 1.419.892.628 1.309a85.13 85.13 0 0 1-7.209 3.603c.006.024.006.016.011.04 2.72-.209 5.432-.556 8.104-1.115a1.42 1.42 0 0 1 .975.131c2.557 1.414-8.189 3.114-9.082 3.312.003.01 0 .008.003.021 2.573.235 5.173.176 7.738-.144.379-.048.769.04 1.066.278 2.052 1.651-8.641 2.44-9.606 2.33l-.013.029c1.977.476 4.01.717 6.044.85.331.022.649.147.889.374 1.97 1.869-7.302 1.246-8.199 1.077-1.064.062-4.31 1.259-9.186-.441-1.52-.529-2.199-7.571-.657-7.926 1.156-.265 3.203-1.443 3.85-1.783.98-.783 4.347-3.806 5.431-2.729Z"/>
    <path fill="#fff" d="M233.098 396.314a110.33 110.33 0 0 0 3.348-1.173c.187-.981 1.336-5.607-.657-7.927-47.593-2.079-11.278-18.47-22.775-42.525-34.132 2.255-51.246 71.65 20.084 51.625Z"/>
    <path fill="#D1E0F2" d="M233.094 396.314c1.095-.364 2.212-.754 3.35-1.174.187-.98 1.336-5.607-.657-7.926 0 0-1.304-.137-2.693-.137 0 0 2.348 4.137 0 9.237Z"/>
    <path fill="#F99746" d="M122.477 540.462v8.591c0 6.932-11.966 12.552-26.73 12.552-7.447 0-14.182-1.43-19.029-3.736-4.762-2.266-7.702-5.381-7.702-8.816v-8.591h53.461Z"/>
    <path fill="#EFCBAB" d="M122.477 540.462c-.25 15.02-50.249 18.21-53.355 1.12a7.099 7.099 0 0 1-.103-1.82c.742-9.948 23.3-14.068 38.899-10.491 7.719 1.772 13.734 5.427 14.559 11.191Z"/>
    <path fill="#F39200" d="m107.996 529.304-23.453 23.481c-.61-.121-1.07-.474-1.652-.617l22.961-23.339c.609.124 1.561.333 2.144.475Z"/>
  </g>
  <defs>
    <radialGradient id="b" cx="0" cy="0" r="1" gradientTransform="matrix(0 139 -229.5 0 577.5 -23)" gradientUnits="userSpaceOnUse">
      <stop stop-color="#009B90"/>
      <stop offset="1" stop-color="#6BFFF3" stop-opacity="0"/>
    </radialGradient>
    <radialGradient id="c" cx="0" cy="0" r="1" gradientTransform="matrix(0 101.5 -403 0 359 523.5)" gradientUnits="userSpaceOnUse">
      <stop stop-color="#4F5C8E"/>
      <stop offset="1" stop-color="#4F5C8E" stop-opacity="0"/>
    </radialGradient>
    <radialGradient id="d" cx="0" cy="0" r="1" gradientTransform="matrix(0 139 -143 0 -74 192)" gradientUnits="userSpaceOnUse">
      <stop stop-color="#009B90"/>
      <stop offset="1" stop-color="#6BFFF3" stop-opacity="0"/>
    </radialGradient>
    <radialGradient id="e" cx="0" cy="0" r="1" gradientTransform="matrix(0 99.5 -177 0 404 752.5)" gradientUnits="userSpaceOnUse">
      <stop stop-color="#009B90"/>
      <stop offset="1" stop-color="#6BFFF3" stop-opacity="0"/>
    </radialGradient>
    <clipPath id="a">
      <path fill="#fff" d="M0 0h720v768H0z"/>
    </clipPath>
  </defs>
</svg>
