<svg xmlns="http://www.w3.org/2000/svg" width="219" height="143" fill="none" viewBox="0 0 219 143">
  <g filter="url(#a)">
    <rect width="194" height="119" x="10.5" y="10" fill="#fff" rx="16"/>
  </g>
  <path fill="#213360" d="M90.622 97.432h2.336V109h-2.104l-5.496-7.96V109H83.03V97.432h2.312l5.28 7.656v-7.656Zm7.676 11.728c-.384 0-.763-.059-1.136-.176a3.351 3.351 0 0 1-1.008-.52 2.678 2.678 0 0 1-.736-.848 2.421 2.421 0 0 1-.272-1.168v-5.72h2.336v5.424c0 .384.125.699.376.944.25.245.619.368 1.104.368.459 0 .821-.117 1.088-.352.272-.24.408-.573.408-1v-5.384h2.312V109h-1.76l-.272-1.64c-.096.485-.277.859-.544 1.12a2.08 2.08 0 0 1-.904.528 3.435 3.435 0 0 1-.992.152Zm11.414-6.808h-1.84l.016 4.408c0 .203.024.355.072.456.053.096.133.16.24.192.112.027.253.04.424.04h1.112v1.44a2.419 2.419 0 0 1-.504.136 5.315 5.315 0 0 1-.944.064c-.725 0-1.288-.093-1.688-.28-.395-.187-.669-.448-.824-.784a2.76 2.76 0 0 1-.232-1.168v-4.504H104.2v-1.624h1.424l.584-2.496h1.664v2.488h1.84v1.632Zm1.726 6.648v-8.272h2.248v1.96c.133-.421.32-.789.56-1.104.245-.32.541-.568.888-.744a2.499 2.499 0 0 1 1.176-.272c.074 0 .144.005.208.016a.43.43 0 0 1 .152.032v2.224a.537.537 0 0 0-.176-.04l-.176-.016c-.459-.037-.851-.024-1.177.04-.325.064-.589.173-.791.328-.203.155-.35.344-.44.568a1.983 1.983 0 0 0-.136.752V109h-2.336Zm8.852-8.272V109h-2.232v-8.272h2.232Zm.024-3.288v2.104h-2.272V97.44h2.272Zm5.364 11.72c-.576 0-1.13-.093-1.664-.28a3.314 3.314 0 0 1-1.352-.896c-.368-.411-.602-.941-.704-1.592h2.024c.07.293.195.525.376.696.187.171.398.293.632.368.235.069.459.104.672.104.448 0 .808-.069 1.08-.208.278-.144.416-.363.416-.656a.65.65 0 0 0-.248-.536c-.16-.133-.426-.235-.8-.304l-1.456-.304c-.73-.155-1.317-.416-1.76-.784-.442-.373-.669-.901-.68-1.584 0-.496.131-.941.392-1.336.267-.395.659-.707 1.176-.936.518-.229 1.152-.344 1.904-.344 1.019 0 1.832.224 2.44.672.614.448.926 1.08.936 1.896h-1.952a1.067 1.067 0 0 0-.48-.736c-.256-.176-.578-.264-.968-.264-.405 0-.738.072-1 .216a.704.704 0 0 0-.392.656c0 .219.107.392.32.52.214.123.544.229.992.32l1.344.304c.464.112.84.267 1.128.464.294.192.52.403.68.632.16.229.27.461.328.696.064.229.096.437.096.624 0 .549-.146 1.019-.44 1.408-.293.384-.701.677-1.224.88-.522.203-1.128.304-1.816.304Zm7.471-8.432V109h-2.232v-8.272h2.232Zm.024-3.288v2.104h-2.272V97.44h2.272Z"/>
  <path fill="#EE5463" d="M106.841 38.32a14.969 14.969 0 0 1 3.062-8.685c1.551-2.065 3.128-3.122 3.143-3.131.38-.25.478-.75.218-1.117a.857.857 0 0 0-1.161-.21c-.072.049-1.796 1.196-3.51 3.462a17.186 17.186 0 0 0-1.155 1.74c-1.065-2.983-3.477-5.344-6.561-6.42a11.229 11.229 0 0 0-9.315.879.794.794 0 0 0-.398.787c.407 3.19 2.32 6.023 5.186 7.678a11.23 11.23 0 0 0 9.482.792 16.672 16.672 0 0 0-.666 4.44 2.708 2.708 0 0 1-.522-.152c-4.716-1.919-10.118-1.437-14.386 1.284-4.269 2.72-6.837 7.317-6.84 12.243 0 4.293 1.857 10.567 4.62 15.612 1.5 2.737 3.21 5.007 4.949 6.566 1.908 1.708 3.822 2.574 5.697 2.574a15.75 15.75 0 0 0 5.579-1.01 3.954 3.954 0 0 1 2.797 0 15.746 15.746 0 0 0 5.577 1.01c2.015 0 4.065-.99 6.099-2.945V38.44a15.884 15.884 0 0 0-11.9-.121h.005Z"/>
  <mask id="b" width="41" height="17" x="89" y="22" maskUnits="userSpaceOnUse" style="mask-type:alpha">
    <path fill="#C4C4C4" d="m89.16 22.314 39.91.36-23.011 16.18-15.46-5.034-1.439-11.506Z"/>
  </mask>
  <g mask="url(#b)">
    <path fill="#213360" d="M106.841 38.32a14.969 14.969 0 0 1 3.062-8.685c1.551-2.065 3.128-3.122 3.143-3.131.38-.25.478-.75.218-1.117a.857.857 0 0 0-1.161-.21c-.072.049-1.796 1.196-3.51 3.462a17.186 17.186 0 0 0-1.155 1.74c-1.065-2.983-3.477-5.344-6.561-6.42a11.229 11.229 0 0 0-9.315.879.794.794 0 0 0-.398.787c.407 3.19 2.32 6.023 5.186 7.678a11.23 11.23 0 0 0 9.482.792 16.672 16.672 0 0 0-.666 4.44 2.708 2.708 0 0 1-.522-.152c-4.716-1.919-10.118-1.437-14.386 1.284-4.269 2.72-6.837 7.317-6.84 12.243 0 4.293 1.857 10.567 4.62 15.612 1.5 2.737 3.21 5.007 4.949 6.566 1.908 1.708 3.822 2.574 5.697 2.574a15.75 15.75 0 0 0 5.579-1.01 3.954 3.954 0 0 1 2.797 0 15.746 15.746 0 0 0 5.577 1.01c2.015 0 4.065-.99 6.099-2.945V38.44a15.884 15.884 0 0 0-11.9-.121h.005Z"/>
  </g>
  <path fill="#F99746" d="M120.41 31.915h6.136c.46 0 .834.36.834.803 0 .444-.374.803-.834.803h-6.136v5.152h6.136c.46 0 .834.36.834.803 0 .443-.374.803-.834.803h-6.136v5.152h6.136c.46 0 .834.36.834.803 0 .443-.374.803-.834.803h-6.136v5.152h6.136c.46 0 .834.36.834.803 0 .443-.374.803-.834.803h-6.136v5.154h6.136c.46 0 .834.36.834.803 0 .443-.374.803-.834.803h-6.136v5.15h6.136c.46 0 .834.36.834.804 0 .443-.374.803-.834.803h-6.136v5.152h6.136c.46 0 .834.359.834.803 0 .443-.374.803-.834.803h-6.136v2.597h11.539V28.594H120.41v3.321Z"/>
  <defs>
    <filter id="a" width="218" height="143" x=".5" y="0" color-interpolation-filters="sRGB" filterUnits="userSpaceOnUse">
      <feFlood flood-opacity="0" result="BackgroundImageFix"/>
      <feColorMatrix in="SourceAlpha" result="hardAlpha" values="0 0 0 0 0 0 0 0 0 0 0 0 0 0 0 0 0 0 127 0"/>
      <feMorphology in="SourceAlpha" operator="dilate" radius="6" result="effect1_dropShadow_619_7645"/>
      <feOffset dx="4" dy="4"/>
      <feGaussianBlur stdDeviation="2"/>
      <feComposite in2="hardAlpha" operator="out"/>
      <feColorMatrix values="0 0 0 0 0 0 0 0 0 0.607843 0 0 0 0 0.564706 0 0 0 0.04 0"/>
      <feBlend in2="BackgroundImageFix" result="effect1_dropShadow_619_7645"/>
      <feColorMatrix in="SourceAlpha" result="hardAlpha" values="0 0 0 0 0 0 0 0 0 0 0 0 0 0 0 0 0 0 127 0"/>
      <feOffset dx="2" dy="2"/>
      <feGaussianBlur stdDeviation="1"/>
      <feComposite in2="hardAlpha" operator="out"/>
      <feColorMatrix values="0 0 0 0 0.129412 0 0 0 0 0.2 0 0 0 0 0.376471 0 0 0 0.04 0"/>
      <feBlend in2="effect1_dropShadow_619_7645" result="effect2_dropShadow_619_7645"/>
      <feColorMatrix in="SourceAlpha" result="hardAlpha" values="0 0 0 0 0 0 0 0 0 0 0 0 0 0 0 0 0 0 127 0"/>
      <feMorphology in="SourceAlpha" operator="dilate" radius="4" result="effect3_dropShadow_619_7645"/>
      <feOffset dx="-1" dy="-1"/>
      <feGaussianBlur stdDeviation="2.5"/>
      <feComposite in2="hardAlpha" operator="out"/>
      <feColorMatrix values="0 0 0 0 0 0 0 0 0 0.0470588 0 0 0 0 0.211765 0 0 0 0.01 0"/>
      <feBlend in2="effect2_dropShadow_619_7645" result="effect3_dropShadow_619_7645"/>
      <feBlend in="SourceGraphic" in2="effect3_dropShadow_619_7645" result="shape"/>
    </filter>
  </defs>
</svg>
