<svg xmlns="http://www.w3.org/2000/svg" width="219" height="143" fill="none" viewBox="0 0 219 143">
  <g filter="url(#a)">
    <rect width="195" height="119" x="10" y="10" fill="#fff" rx="16"/>
  </g>
  <path fill="#213360" d="M61.127 109.16c-1.093 0-2.04-.237-2.84-.712-.794-.48-1.41-1.16-1.848-2.04-.432-.885-.648-1.941-.648-3.168 0-1.232.22-2.293.656-3.184.443-.89 1.064-1.576 1.864-2.056.8-.485 1.74-.728 2.816-.728 1.072 0 2.006.24 2.8.72.795.48 1.408 1.165 1.84 2.056.438.891.656 1.955.656 3.192 0 1.221-.216 2.275-.648 3.16-.426.885-1.037 1.568-1.832 2.048-.794.475-1.733.712-2.816.712Zm0-1.92c.566 0 1.054-.133 1.464-.4.416-.272.736-.699.96-1.28.224-.587.336-1.349.336-2.288 0-.965-.114-1.747-.344-2.344-.224-.597-.544-1.035-.96-1.312-.41-.283-.896-.424-1.456-.424-.56 0-1.048.141-1.464.424-.416.277-.738.717-.968 1.32-.229.597-.344 1.376-.344 2.336 0 .944.115 1.707.344 2.288.23.581.552 1.008.968 1.28.416.267.904.4 1.464.4Zm11.458 1.92a3.16 3.16 0 0 1-1.064-.16 2.433 2.433 0 0 1-.76-.424 2.56 2.56 0 0 1-.512-.6 3.19 3.19 0 0 1-.312-.672L69.673 109h-1.696V97.112h2.344v4.736c.1-.176.232-.341.392-.496a2.57 2.57 0 0 1 .56-.408 2.94 2.94 0 0 1 .704-.272c.26-.069.538-.104.832-.104 1.029 0 1.834.371 2.416 1.112.586.741.88 1.787.88 3.136 0 .875-.134 1.637-.4 2.288-.267.651-.662 1.157-1.184 1.52-.523.357-1.168.536-1.936.536Zm-.512-1.68c.5 0 .917-.205 1.248-.616.336-.416.504-1.109.504-2.08 0-.859-.16-1.493-.48-1.904-.315-.411-.744-.616-1.288-.616-.39 0-.712.093-.968.28-.256.181-.448.459-.576.832-.123.373-.187.843-.192 1.408 0 .976.144 1.669.432 2.08.293.411.733.616 1.32.616Zm7.944 1.68a3.323 3.323 0 0 1-1.424-.296 2.374 2.374 0 0 1-1-.856c-.245-.379-.368-.837-.368-1.376 0-.907.339-1.595 1.016-2.064.677-.475 1.747-.72 3.208-.736l1.032-.016v-.496c0-.379-.112-.669-.336-.872-.218-.208-.56-.309-1.024-.304a2.225 2.225 0 0 0-.976.24c-.304.155-.512.424-.624.808h-1.944c.032-.597.206-1.088.52-1.472.315-.389.742-.677 1.28-.864.544-.192 1.16-.288 1.848-.288.848 0 1.528.107 2.04.32.512.208.883.509 1.112.904.23.389.344.853.344 1.392V109H82.77l-.192-1.424c-.282.597-.637 1.011-1.064 1.24-.421.229-.92.344-1.496.344Zm.784-1.536c.213 0 .419-.037.616-.112a1.95 1.95 0 0 0 .536-.312c.16-.133.288-.283.384-.448.096-.165.144-.336.144-.512v-1.224l-.84.016c-.39.005-.752.053-1.088.144a1.805 1.805 0 0 0-.816.424c-.203.197-.304.464-.304.8 0 .384.133.685.4.904.267.213.59.32.968.32Zm10.669-5.272h-1.84l.016 4.408c0 .203.024.355.072.456.053.096.133.16.24.192.112.027.253.04.424.04h1.112v1.44a2.408 2.408 0 0 1-.504.136 5.313 5.313 0 0 1-.944.064c-.726 0-1.288-.093-1.688-.28-.395-.187-.67-.448-.824-.784a2.765 2.765 0 0 1-.232-1.168v-4.504h-1.344v-1.624h1.424l.584-2.496h1.664v2.488h1.84v1.632Zm8.6 1.68v1.696l-4.368.008v-1.704h4.368Zm9.198 5.128c-1.093 0-2.04-.237-2.84-.712-.795-.48-1.411-1.16-1.848-2.04-.432-.885-.648-1.941-.648-3.168 0-1.232.219-2.293.656-3.184.443-.89 1.064-1.576 1.864-2.056.8-.485 1.739-.728 2.816-.728 1.072 0 2.005.24 2.8.72.795.48 1.408 1.165 1.84 2.056.437.891.656 1.955.656 3.192 0 1.221-.216 2.275-.648 3.16-.427.885-1.037 1.568-1.832 2.048-.795.475-1.733.712-2.816.712Zm0-1.92c.565 0 1.053-.133 1.464-.4.416-.272.736-.699.96-1.28.224-.587.336-1.349.336-2.288 0-.965-.115-1.747-.344-2.344-.224-.597-.544-1.035-.96-1.312-.411-.283-.896-.424-1.456-.424-.56 0-1.048.141-1.464.424-.416.277-.739.717-.968 1.32-.229.597-.344 1.376-.344 2.336 0 .944.115 1.707.344 2.288.229.581.552 1.008.968 1.28.416.267.904.4 1.464.4Zm11.457 1.92c-.41 0-.765-.053-1.064-.16a2.441 2.441 0 0 1-.76-.424 2.576 2.576 0 0 1-.512-.6 3.23 3.23 0 0 1-.312-.672l-.264 1.696h-1.696V97.112h2.344v4.736c.102-.176.232-.341.392-.496.16-.155.347-.291.56-.408.214-.117.448-.208.704-.272.262-.069.539-.104.832-.104 1.03 0 1.835.371 2.416 1.112.587.741.88 1.787.88 3.136 0 .875-.133 1.637-.4 2.288-.266.651-.661 1.157-1.184 1.52-.522.357-1.168.536-1.936.536Zm-.512-1.68c.502 0 .918-.205 1.248-.616.336-.416.504-1.109.504-2.08 0-.859-.16-1.493-.48-1.904-.314-.411-.744-.616-1.288-.616-.389 0-.712.093-.968.28-.256.181-.448.459-.576.832-.122.373-.186.843-.192 1.408 0 .976.144 1.669.432 2.08.294.411.734.616 1.32.616Zm7.945 1.68a3.322 3.322 0 0 1-1.424-.296 2.368 2.368 0 0 1-1-.856c-.246-.379-.368-.837-.368-1.376 0-.907.338-1.595 1.016-2.064.677-.475 1.746-.72 3.208-.736l1.032-.016v-.496c0-.379-.112-.669-.336-.872-.219-.208-.56-.309-1.024-.304a2.222 2.222 0 0 0-.976.24c-.304.155-.512.424-.624.808h-1.944c.032-.597.205-1.088.52-1.472.314-.389.741-.677 1.28-.864.544-.192 1.16-.288 1.848-.288.848 0 1.528.107 2.04.32.512.208.882.509 1.112.904.229.389.344.853.344 1.392V109h-1.952l-.192-1.424c-.283.597-.638 1.011-1.064 1.24-.422.229-.92.344-1.496.344Zm.784-1.536c.213 0 .418-.037.616-.112a1.98 1.98 0 0 0 .536-.312c.16-.133.288-.283.384-.448.096-.165.144-.336.144-.512v-1.224l-.84.016c-.39.005-.752.053-1.088.144a1.805 1.805 0 0 0-.816.424c-.203.197-.304.464-.304.8 0 .384.133.685.4.904a1.5 1.5 0 0 0 .968.32Zm10.668-5.272h-1.84l.016 4.408c0 .203.024.355.072.456.054.096.134.16.24.192.112.027.254.04.424.04h1.112v1.44a2.383 2.383 0 0 1-.504.136 5.307 5.307 0 0 1-.944.064c-.725 0-1.288-.093-1.688-.28-.394-.187-.669-.448-.824-.784a2.776 2.776 0 0 1-.232-1.168v-4.504h-1.344v-1.624h1.424l.584-2.496h1.664v2.488h1.84v1.632Zm4.11 6.808a3.325 3.325 0 0 1-1.424-.296 2.38 2.38 0 0 1-1-.856c-.245-.379-.368-.837-.368-1.376 0-.907.339-1.595 1.016-2.064.678-.475 1.747-.72 3.208-.736l1.032-.016v-.496c0-.379-.112-.669-.336-.872-.218-.208-.56-.309-1.024-.304a2.229 2.229 0 0 0-.976.24c-.304.155-.512.424-.624.808h-1.944c.032-.597.206-1.088.52-1.472.315-.389.742-.677 1.28-.864.544-.192 1.16-.288 1.848-.288.848 0 1.528.107 2.04.32.512.208.883.509 1.112.904.23.389.344.853.344 1.392V109h-1.952l-.192-1.424c-.282.597-.637 1.011-1.064 1.24-.421.229-.92.344-1.496.344Zm.784-1.536c.214 0 .419-.037.616-.112a1.95 1.95 0 0 0 .536-.312c.16-.133.288-.283.384-.448.096-.165.144-.336.144-.512v-1.224l-.84.016a4.368 4.368 0 0 0-1.088.144 1.805 1.805 0 0 0-.816.424c-.202.197-.304.464-.304.8 0 .384.134.685.4.904.267.213.59.32.968.32Zm5.988 1.376v-8.272h2.296v1.168a2.94 2.94 0 0 1 .496-.584 2.47 2.47 0 0 1 .784-.472c.315-.123.688-.184 1.12-.184.507 0 .979.099 1.416.296.443.197.8.509 1.072.936.272.421.408.973.408 1.656V109h-2.336v-5.168c0-.448-.133-.784-.4-1.008-.266-.224-.592-.336-.976-.336-.256 0-.504.045-.744.136a1.384 1.384 0 0 0-.576.408 1.023 1.023 0 0 0-.224.672V109h-2.336Z"/>
  <path fill="#92C3D1" d="M94.803 51.993c-2.454-2.454-6.508-2.454-8.962 0-2.454 2.455-2.454 6.509 0 8.963l4.908 4.908 8.962-8.909-4.908-4.962Z"/>
  <path fill="#213360" d="m106.006 63.197-4.908-4.908-9.016 8.962 4.908 4.908c2.454 2.454 6.509 2.454 8.962 0 2.508-2.454 2.508-6.455.054-8.962Z"/>
  <path fill="#EE5463" d="M127.932 65.17c4.482-4.48 4.695-11.682.534-16.377l-16.911 16.911c4.694 4.161 11.896 3.948 16.378-.533h-.001Z"/>
  <path fill="#213360" d="M110.967 48.206c-4.481 4.48-4.695 11.683-.534 16.378l16.912-16.912c-4.695-4.161-11.897-3.947-16.378.534Z"/>
  <path fill="#F99746" d="M94.481 39.083c-2.454 2.455-2.454 6.509 0 8.963 2.455 2.454 6.509 2.454 8.963 0l4.908-4.908-8.91-9.016-4.96 4.961Z"/>
  <path fill="#213360" d="m105.685 27.88-4.908 4.909 8.963 8.962 4.908-4.908c2.454-2.454 2.454-6.509 0-8.963-2.454-2.507-6.455-2.507-8.963 0Z"/>
  <defs>
    <filter id="a" width="219" height="143" x="0" y="0" color-interpolation-filters="sRGB" filterUnits="userSpaceOnUse">
      <feFlood flood-opacity="0" result="BackgroundImageFix"/>
      <feColorMatrix in="SourceAlpha" result="hardAlpha" values="0 0 0 0 0 0 0 0 0 0 0 0 0 0 0 0 0 0 127 0"/>
      <feMorphology in="SourceAlpha" operator="dilate" radius="6" result="effect1_dropShadow_618_7622"/>
      <feOffset dx="4" dy="4"/>
      <feGaussianBlur stdDeviation="2"/>
      <feComposite in2="hardAlpha" operator="out"/>
      <feColorMatrix values="0 0 0 0 0 0 0 0 0 0.607843 0 0 0 0 0.564706 0 0 0 0.04 0"/>
      <feBlend in2="BackgroundImageFix" result="effect1_dropShadow_618_7622"/>
      <feColorMatrix in="SourceAlpha" result="hardAlpha" values="0 0 0 0 0 0 0 0 0 0 0 0 0 0 0 0 0 0 127 0"/>
      <feOffset dx="2" dy="2"/>
      <feGaussianBlur stdDeviation="1"/>
      <feComposite in2="hardAlpha" operator="out"/>
      <feColorMatrix values="0 0 0 0 0.129412 0 0 0 0 0.2 0 0 0 0 0.376471 0 0 0 0.04 0"/>
      <feBlend in2="effect1_dropShadow_618_7622" result="effect2_dropShadow_618_7622"/>
      <feColorMatrix in="SourceAlpha" result="hardAlpha" values="0 0 0 0 0 0 0 0 0 0 0 0 0 0 0 0 0 0 127 0"/>
      <feMorphology in="SourceAlpha" operator="dilate" radius="4" result="effect3_dropShadow_618_7622"/>
      <feOffset dx="-1" dy="-1"/>
      <feGaussianBlur stdDeviation="2.5"/>
      <feComposite in2="hardAlpha" operator="out"/>
      <feColorMatrix values="0 0 0 0 0 0 0 0 0 0.0470588 0 0 0 0 0.211765 0 0 0 0.01 0"/>
      <feBlend in2="effect2_dropShadow_618_7622" result="effect3_dropShadow_618_7622"/>
      <feBlend in="SourceGraphic" in2="effect3_dropShadow_618_7622" result="shape"/>
    </filter>
  </defs>
</svg>
