<svg xmlns="http://www.w3.org/2000/svg" width="879" height="168" fill="none" viewBox="0 0 879 168">
  <path fill="#213360" d="M528.62 61V46.54h5.32c1.053 0 1.997.183 2.83.55.833.36 1.49.893 1.97 1.6.487.707.73 1.57.73 2.59 0 .96-.213 1.78-.64 2.46-.427.68-1.027 1.2-1.8 1.56-.767.36-1.67.54-2.71.54h-2.76V61h-2.94Zm2.91-7.42h2.71c.733 0 1.333-.233 1.8-.7.467-.473.7-1.057.7-1.75 0-.72-.247-1.29-.74-1.71-.493-.427-1.093-.64-1.8-.64h-2.67v4.8Zm13.557 7.62a4.71 4.71 0 0 1-1.42-.22 4.19 4.19 0 0 1-1.26-.65 3.36 3.36 0 0 1-.92-1.06c-.226-.42-.34-.907-.34-1.46v-7.15h2.92v6.78c0 .48.157.873.47 1.18.314.307.774.46 1.38.46.574 0 1.027-.147 1.36-.44.34-.3.51-.717.51-1.25v-6.73h2.89V61h-2.2l-.34-2.05c-.12.607-.346 1.073-.68 1.4-.326.32-.703.54-1.13.66-.42.127-.833.19-1.24.19Zm8.026-.2V50.66h2.87v1.46c.16-.253.367-.497.62-.73.26-.24.587-.437.98-.59.394-.153.86-.23 1.4-.23.634 0 1.224.123 1.77.37.554.247 1 .637 1.34 1.17.34.527.51 1.217.51 2.07V61h-2.92v-6.46c0-.56-.166-.98-.5-1.26-.333-.28-.74-.42-1.22-.42-.32 0-.63.057-.93.17a1.716 1.716 0 0 0-.72.51c-.186.227-.28.507-.28.84V61h-2.92Zm13.095 3.3c-.707 0-1.207-.06-1.5-.18l-.43-.17v-1.86l1.02.04c.446.027.806.003 1.08-.07.273-.067.48-.157.62-.27.146-.113.25-.233.31-.36.06-.12.103-.217.13-.29l.19-.57-4.02-9.91h2.89l2.48 6.74 2.51-6.74h2.85l-4.19 10.4c-.36.88-.74 1.553-1.14 2.02-.4.467-.834.787-1.3.96-.46.173-.96.26-1.5.26Zm12.21-3.1c-.66 0-1.253-.123-1.78-.37a2.967 2.967 0 0 1-1.25-1.07c-.307-.473-.46-1.047-.46-1.72 0-1.133.423-1.993 1.27-2.58.847-.593 2.183-.9 4.01-.92l1.29-.02v-.62c0-.473-.14-.837-.42-1.09-.273-.26-.7-.387-1.28-.38a2.794 2.794 0 0 0-1.22.3c-.38.193-.64.53-.78 1.01h-2.43c.04-.747.257-1.36.65-1.84.393-.487.927-.847 1.6-1.08.68-.24 1.45-.36 2.31-.36 1.06 0 1.91.133 2.55.4.64.26 1.103.637 1.39 1.13.287.487.43 1.067.43 1.74V61h-2.44l-.24-1.78c-.353.747-.797 1.263-1.33 1.55-.527.287-1.15.43-1.87.43Zm.98-1.92c.267 0 .523-.047.77-.14.253-.1.477-.23.67-.39.2-.167.36-.353.48-.56.12-.207.18-.42.18-.64v-1.53l-1.05.02c-.487.007-.94.067-1.36.18-.42.107-.76.283-1.02.53-.253.247-.38.58-.38 1 0 .48.167.857.5 1.13.333.267.737.4 1.21.4ZM602.711 61h-3.03l-2.35-5.57h-2.93V61h-2.91V46.54h6.1c1.153 0 2.097.183 2.83.55.733.367 1.273.877 1.62 1.53.347.647.52 1.393.52 2.24 0 .76-.12 1.403-.36 1.93a3.81 3.81 0 0 1-.93 1.3 5.25 5.25 0 0 1-1.25.85l2.69 6.06Zm-5.64-7.82c.78 0 1.397-.21 1.85-.63.46-.42.69-.96.69-1.62 0-.667-.22-1.193-.66-1.58-.44-.387-.997-.58-1.67-.58h-2.88v4.41h2.67Zm10.005 3.32c-.007.527.076.987.25 1.38.173.387.423.687.75.9.333.207.733.31 1.2.31.5 0 .936-.107 1.31-.32.38-.213.643-.563.79-1.05h2.63a3.533 3.533 0 0 1-.88 1.88 4.598 4.598 0 0 1-1.7 1.19 5.44 5.44 0 0 1-2.08.41c-1.02 0-1.92-.213-2.7-.64a4.59 4.59 0 0 1-1.81-1.83c-.434-.787-.65-1.713-.65-2.78 0-1.033.196-1.963.59-2.79a4.64 4.64 0 0 1 1.71-1.97c.753-.487 1.656-.73 2.71-.73 1.053 0 1.936.223 2.65.67.72.44 1.26 1.057 1.62 1.85.366.787.55 1.697.55 2.73v.79h-6.94Zm-.01-1.74h4.22c0-.413-.077-.793-.23-1.14a1.833 1.833 0 0 0-.7-.82c-.307-.2-.694-.3-1.16-.3-.454 0-.84.11-1.16.33a2.086 2.086 0 0 0-.72.84 2.48 2.48 0 0 0-.25 1.09Zm13.047 6.44a6.26 6.26 0 0 1-2.08-.35 4.14 4.14 0 0 1-1.69-1.12c-.46-.513-.753-1.177-.88-1.99h2.53c.087.367.244.657.47.87.234.213.497.367.79.46.294.087.574.13.84.13.56 0 1.01-.087 1.35-.26.347-.18.52-.453.52-.82a.816.816 0 0 0-.31-.67c-.2-.167-.533-.293-1-.38l-1.82-.38c-.913-.193-1.646-.52-2.2-.98-.553-.467-.836-1.127-.85-1.98 0-.62.164-1.177.49-1.67.334-.493.824-.883 1.47-1.17.647-.287 1.44-.43 2.38-.43 1.274 0 2.29.28 3.05.84.767.56 1.157 1.35 1.17 2.37h-2.44a1.337 1.337 0 0 0-.6-.92c-.32-.22-.723-.33-1.21-.33-.506 0-.923.09-1.25.27-.326.18-.49.453-.49.82 0 .273.134.49.4.65.267.153.68.287 1.24.4l1.68.38c.58.14 1.05.333 1.41.58.367.24.65.503.85.79.2.287.337.577.41.87.08.287.12.547.12.78 0 .687-.183 1.273-.55 1.76-.366.48-.876.847-1.53 1.1-.653.253-1.41.38-2.27.38Zm8.799-4.7c-.007.527.076.987.25 1.38.173.387.423.687.75.9.333.207.733.31 1.2.31.5 0 .936-.107 1.31-.32.38-.213.643-.563.79-1.05h2.63a3.533 3.533 0 0 1-.88 1.88 4.598 4.598 0 0 1-1.7 1.19 5.44 5.44 0 0 1-2.08.41c-1.02 0-1.92-.213-2.7-.64a4.59 4.59 0 0 1-1.81-1.83c-.434-.787-.65-1.713-.65-2.78 0-1.033.196-1.963.59-2.79a4.64 4.64 0 0 1 1.71-1.97c.753-.487 1.656-.73 2.71-.73 1.053 0 1.936.223 2.65.67.72.44 1.26 1.057 1.62 1.85.366.787.55 1.697.55 2.73v.79h-6.94Zm-.01-1.74h4.22c0-.413-.077-.793-.23-1.14a1.833 1.833 0 0 0-.7-.82c-.307-.2-.694-.3-1.16-.3-.454 0-.84.11-1.16.33a2.086 2.086 0 0 0-.72.84 2.48 2.48 0 0 0-.25 1.09Zm8.977 9.46V50.66h2.93l.01 1.49c.153-.247.34-.47.56-.67a4.04 4.04 0 0 1 .75-.54c.273-.153.57-.27.89-.35.32-.087.657-.13 1.01-.13.767 0 1.45.19 2.05.57.6.373 1.07.953 1.41 1.74.347.78.52 1.773.52 2.98 0 1.253-.187 2.283-.56 3.09-.367.8-.873 1.393-1.52 1.78s-1.377.58-2.19.58c-.333 0-.647-.047-.94-.14a3.255 3.255 0 0 1-.82-.37 3.812 3.812 0 0 1-.67-.55 4.328 4.328 0 0 1-.51-.69v4.77h-2.92Zm5.16-5.16c.633 0 1.163-.263 1.59-.79.433-.527.65-1.36.65-2.5 0-1-.207-1.78-.62-2.34-.407-.567-.947-.85-1.62-.85-.753 0-1.317.307-1.69.92-.367.607-.55 1.363-.55 2.27 0 .58.08 1.12.24 1.62.167.5.413.903.74 1.21.333.307.753.46 1.26.46Zm11.46-12.52h1.8c.46 0 .917.003 1.37.01.46 0 .843.003 1.15.01 1.753.04 3.183.353 4.29.94 1.107.587 1.917 1.407 2.43 2.46.52 1.053.78 2.3.78 3.74 0 1.5-.273 2.797-.82 3.89-.547 1.087-1.383 1.927-2.51 2.52-1.12.593-2.543.89-4.27.89h-4.22V46.54Zm2.94 2.36v9.74h1.34c.827 0 1.577-.16 2.25-.48.68-.32 1.223-.843 1.63-1.57.407-.727.61-1.697.61-2.91 0-1.127-.18-2.04-.54-2.74-.36-.707-.873-1.223-1.54-1.55-.667-.327-1.457-.49-2.37-.49h-1.38Zm15.524 12.3c-1.013 0-1.896-.217-2.65-.65a4.467 4.467 0 0 1-1.74-1.84c-.406-.793-.61-1.733-.61-2.82 0-1.087.204-2.037.61-2.85a4.625 4.625 0 0 1 1.74-1.9c.754-.453 1.64-.68 2.66-.68 1.02 0 1.904.223 2.65.67.747.44 1.324 1.067 1.73 1.88.407.813.61 1.773.61 2.88 0 1.04-.2 1.96-.6 2.76a4.454 4.454 0 0 1-1.71 1.87c-.74.453-1.636.68-2.69.68Zm.01-2.17c.514 0 .927-.15 1.24-.45.314-.3.54-.693.68-1.18.147-.493.22-1.03.22-1.61 0-.547-.066-1.063-.2-1.55-.126-.487-.346-.88-.66-1.18-.313-.3-.74-.45-1.28-.45-.513 0-.93.143-1.25.43-.313.28-.543.663-.69 1.15a5.484 5.484 0 0 0-.22 1.6c0 .54.067 1.06.2 1.56.134.493.357.897.67 1.21.314.313.744.47 1.29.47ZM689.9 61h-2.91l-2.79-4.46-1.37 1.46v3h-2.92V46.14h2.92v8.81l3.8-4.29h3.14l-3.76 4.12L689.9 61Zm7.951-8.31h-2.3l.02 5.51c0 .253.03.443.09.57.066.12.166.2.3.24.14.033.316.05.53.05h1.39v1.8c-.134.06-.344.117-.63.17-.28.053-.674.08-1.18.08-.907 0-1.61-.117-2.11-.35-.494-.233-.837-.56-1.03-.98-.194-.42-.29-.907-.29-1.46v-5.63h-1.68v-2.03h1.78l.73-3.12h2.08v3.11h2.3v2.04Zm6.265 8.51c-1.014 0-1.897-.217-2.65-.65a4.454 4.454 0 0 1-1.74-1.84c-.407-.793-.61-1.733-.61-2.82 0-1.087.203-2.037.61-2.85a4.612 4.612 0 0 1 1.74-1.9c.753-.453 1.64-.68 2.66-.68 1.02 0 1.903.223 2.65.67.746.44 1.323 1.067 1.73 1.88.406.813.61 1.773.61 2.88 0 1.04-.2 1.96-.6 2.76a4.467 4.467 0 0 1-1.71 1.87c-.74.453-1.637.68-2.69.68Zm.01-2.17c.513 0 .926-.15 1.24-.45.313-.3.54-.693.68-1.18a5.65 5.65 0 0 0 .22-1.61c0-.547-.067-1.063-.2-1.55-.127-.487-.347-.88-.66-1.18-.314-.3-.74-.45-1.28-.45-.514 0-.93.143-1.25.43-.314.28-.544.663-.69 1.15a5.45 5.45 0 0 0-.22 1.6 6 6 0 0 0 .2 1.56c.133.493.356.897.67 1.21.313.313.743.47 1.29.47Zm6.936 1.97V50.66h2.811v2.45c.166-.527.4-.987.7-1.38.306-.4.676-.71 1.11-.93.433-.227.923-.34 1.47-.34.093 0 .18.007.26.02.086.007.15.02.19.04v2.78a.673.673 0 0 0-.22-.05l-.22-.02c-.574-.047-1.064-.03-1.471.05-.406.08-.736.217-.989.41-.254.193-.437.43-.55.71-.114.28-.17.593-.17.94V61h-2.921Zm13.134-3.12V61h-3.2v-3.12h3.2Zm-6.41-8.26c.427-1.053 1.077-1.863 1.95-2.43.88-.567 1.927-.85 3.14-.85.954 0 1.787.153 2.5.46.714.307 1.267.717 1.66 1.23.4.513.6 1.083.6 1.71 0 .653-.133 1.21-.4 1.67-.26.46-.58.873-.96 1.24-.38.36-.763.72-1.15 1.08-.38.353-.7.75-.96 1.19-.26.433-.39.953-.39 1.56h-2.35c0-.733.11-1.367.33-1.9.227-.54.504-1.01.83-1.41a19.5 19.5 0 0 1 .99-1.12c.327-.34.6-.68.82-1.02a2.04 2.04 0 0 0 .34-1.14c0-.473-.18-.85-.54-1.13-.353-.28-.8-.42-1.34-.42-.36 0-.71.08-1.05.24-.34.153-.646.37-.92.65-.266.28-.473.61-.62.99l-2.48-.6Z"/>
  <path fill="#525252" d="M527.322 86.068v-1.19h7.658v1.19h-3.087V95h-1.302v-8.932h-3.269Zm10.23 9.072c-.467 0-.88-.082-1.239-.245a1.997 1.997 0 0 1-.847-.721c-.201-.313-.301-.69-.301-1.134 0-.803.28-1.4.84-1.792.56-.392 1.458-.602 2.695-.63l1.295-.035v-.567c0-.443-.133-.793-.399-1.05-.266-.261-.679-.392-1.239-.392a2.132 2.132 0 0 0-1.099.294c-.313.191-.516.504-.609.938h-1.141c.028-.471.161-.868.399-1.19.238-.327.569-.574.994-.742.429-.168.935-.252 1.519-.252.63 0 1.152.089 1.568.266.42.177.732.439.938.784.21.345.315.77.315 1.274V95h-1.106l-.091-1.358c-.28.565-.637.957-1.071 1.176a3.13 3.13 0 0 1-1.421.322Zm.392-.931c.242 0 .483-.044.721-.133.242-.089.464-.208.665-.357.2-.154.359-.324.476-.511a1.14 1.14 0 0 0 .189-.588v-1.239l-1.078.021c-.551.01-1.013.065-1.386.168-.369.103-.647.264-.833.483-.182.22-.273.506-.273.861 0 .406.14.723.42.952.284.229.651.343 1.099.343Zm11.864.791h-1.372l-2.268-3.633-1.428 1.477V95h-1.288V84.598h1.288v6.783l3.402-3.619h1.484l-2.611 2.758 2.793 4.48Zm4.773 2.254v-9.492h1.288l.014 1.26c.084-.15.191-.306.322-.469.135-.163.298-.315.49-.455.196-.14.422-.254.679-.343.261-.089.557-.133.889-.133.578 0 1.087.133 1.526.399.443.261.788.663 1.036 1.204.247.541.371 1.227.371 2.058 0 .83-.122 1.533-.364 2.107-.238.57-.584 1.003-1.036 1.302-.453.299-.999.448-1.638.448-.322 0-.609-.047-.861-.14a2.327 2.327 0 0 1-.651-.35 2.764 2.764 0 0 1-.462-.476 3.71 3.71 0 0 1-.301-.483v3.563h-1.302Zm3.332-3.122c.597 0 1.085-.226 1.463-.679.378-.457.567-1.167.567-2.128 0-.826-.173-1.482-.518-1.967-.346-.485-.85-.728-1.512-.728-.672 0-1.181.25-1.526.749-.346.495-.518 1.143-.518 1.946 0 .518.077.99.231 1.414.154.425.382.763.686 1.015.303.252.679.378 1.127.378Zm5.904-2.45c0 .457.075.873.224 1.246.154.369.385.663.693.882.313.22.703.329 1.169.329.462 0 .859-.107 1.19-.322.336-.215.551-.525.644-.931h1.225c-.088.49-.284.903-.588 1.239a2.93 2.93 0 0 1-1.099.763 3.653 3.653 0 0 1-1.344.252c-.676 0-1.271-.147-1.785-.441a3.071 3.071 0 0 1-1.204-1.267c-.289-.55-.434-1.211-.434-1.981 0-.76.131-1.428.392-2.002a3.096 3.096 0 0 1 1.134-1.344c.5-.322 1.099-.483 1.799-.483.682 0 1.258.147 1.729.441.472.294.829.71 1.071 1.246.248.532.371 1.164.371 1.897v.476h-5.187Zm.007-.875h3.934c0-.415-.07-.789-.21-1.12-.14-.336-.354-.6-.644-.791-.284-.196-.644-.294-1.078-.294-.452 0-.828.11-1.127.329a2.017 2.017 0 0 0-.665.833 2.549 2.549 0 0 0-.21 1.043ZM570.782 95v-7.238h1.232v1.393a2.28 2.28 0 0 1 .511-.854 2.12 2.12 0 0 1 .749-.511 2.391 2.391 0 0 1 1.197-.147.654.654 0 0 1 .238.07v1.253a.81.81 0 0 0-.273-.063 2.157 2.157 0 0 0-.273-.021c-.289-.019-.56 0-.812.056a1.8 1.8 0 0 0-.665.273c-.191.13-.343.303-.455.518-.107.21-.161.467-.161.77V95h-1.288Zm7.255.091c-.392 0-.71-.054-.952-.161a1.334 1.334 0 0 1-.553-.434 1.639 1.639 0 0 1-.259-.623 4.222 4.222 0 0 1-.063-.735v-8.54h1.274v8.414c0 .364.07.637.21.819a.804.804 0 0 0 .602.301l.392.007v.84a2.57 2.57 0 0 1-.336.077 1.63 1.63 0 0 1-.315.035Zm4.77.049a3.808 3.808 0 0 1-1.071-.161 2.765 2.765 0 0 1-.882-.469 2.233 2.233 0 0 1-.609-.763 2.504 2.504 0 0 1-.217-1.071v-4.914h1.295v4.781c0 .471.145.854.434 1.148.294.294.735.441 1.323.441.532 0 .959-.138 1.281-.413.327-.28.49-.695.49-1.246v-4.711h1.288V95h-1.029l-.133-1.386c-.088.364-.24.658-.455.882-.21.224-.464.39-.763.497a2.75 2.75 0 0 1-.952.147Zm10.58 0a2.97 2.97 0 0 1-1.239-.245 2.009 2.009 0 0 1-.847-.721c-.2-.313-.301-.69-.301-1.134 0-.803.28-1.4.84-1.792.56-.392 1.459-.602 2.695-.63l1.295-.035v-.567c0-.443-.133-.793-.399-1.05-.266-.261-.679-.392-1.239-.392a2.138 2.138 0 0 0-1.099.294c-.312.191-.515.504-.609.938h-1.141c.028-.471.161-.868.399-1.19.238-.327.57-.574.994-.742.43-.168.936-.252 1.519-.252.63 0 1.153.089 1.568.266.42.177.733.439.938.784.21.345.315.77.315 1.274V95h-1.106l-.091-1.358c-.28.565-.637.957-1.071 1.176a3.131 3.131 0 0 1-1.421.322Zm.392-.931c.243 0 .483-.044.721-.133a2.59 2.59 0 0 0 .665-.357c.201-.154.36-.324.476-.511.122-.191.185-.387.189-.588v-1.239l-1.078.021c-.55.01-1.012.065-1.386.168-.368.103-.646.264-.833.483-.182.22-.273.506-.273.861 0 .406.14.723.42.952.285.229.651.343 1.099.343Zm5.509.791v-7.238h1.253v1.05c.116-.2.277-.39.483-.567.21-.177.462-.32.756-.427a3.03 3.03 0 0 1 1.029-.161c.457 0 .877.091 1.26.273.387.182.695.467.924.854.233.383.35.877.35 1.484V95h-1.295v-4.606c0-.565-.15-.982-.448-1.253-.294-.275-.677-.413-1.148-.413-.327 0-.633.054-.917.161a1.563 1.563 0 0 0-.693.476c-.178.21-.266.476-.266.798V95h-1.288Zm11.415-6.293h-1.631v4.501c0 .257.026.446.077.567a.4.4 0 0 0 .273.224c.131.033.308.049.532.049h.791v.868a1.98 1.98 0 0 1-.406.084 5.243 5.243 0 0 1-.665.035c-.499 0-.886-.068-1.162-.203a1.16 1.16 0 0 1-.581-.602c-.107-.266-.161-.593-.161-.98v-4.543h-1.176v-.945h1.211l.315-2.107h.952v2.1h1.631v.952Zm1.86 6.293v-7.238h1.232v1.393c.122-.345.292-.63.511-.854.22-.229.469-.399.749-.511a2.391 2.391 0 0 1 1.197-.147.654.654 0 0 1 .238.07v1.253a.81.81 0 0 0-.273-.063 2.157 2.157 0 0 0-.273-.021c-.289-.019-.56 0-.812.056a1.807 1.807 0 0 0-.665.273c-.191.13-.343.303-.455.518-.107.21-.161.467-.161.77V95h-1.288Zm6.202-3.318c0 .457.074.873.224 1.246.154.369.385.663.693.882.312.22.702.329 1.169.329.462 0 .858-.107 1.19-.322.336-.215.55-.525.644-.931h1.225c-.089.49-.285.903-.588 1.239-.304.336-.67.59-1.099.763-.43.168-.878.252-1.344.252-.677 0-1.272-.147-1.785-.441a3.059 3.059 0 0 1-1.204-1.267c-.29-.55-.434-1.211-.434-1.981 0-.76.13-1.428.392-2.002a3.083 3.083 0 0 1 1.134-1.344c.499-.322 1.099-.483 1.799-.483.681 0 1.257.147 1.729.441.471.294.828.71 1.071 1.246.247.532.371 1.164.371 1.897v.476h-5.187Zm.007-.875h3.934c0-.415-.07-.789-.21-1.12-.14-.336-.355-.6-.644-.791-.285-.196-.644-.294-1.078-.294-.453 0-.829.11-1.127.329a2.01 2.01 0 0 0-.665.833 2.516 2.516 0 0 0-.21 1.043Zm13.392-6.083a3.5 3.5 0 0 1 1.372.266c.42.177.758.427 1.015.749a1.762 1.762 0 0 1 .273 1.722c-.07.21-.192.434-.364.672a4.142 4.142 0 0 1-.728.728 7.7 7.7 0 0 1-1.19.763l2.219 2.597c.088-.126.196-.315.322-.567a6.12 6.12 0 0 0 .364-.917c.112-.355.179-.751.203-1.19h1.274a5.94 5.94 0 0 1-.329 1.323 7.197 7.197 0 0 1-.546 1.127c-.206.35-.42.684-.644 1.001L637.113 95h-1.512l-.98-1.127a5.336 5.336 0 0 1-1.575.917 4.75 4.75 0 0 1-1.582.28c-.658 0-1.216-.11-1.673-.329-.453-.224-.796-.532-1.029-.924-.234-.392-.35-.845-.35-1.358 0-.443.086-.842.259-1.197.177-.36.443-.69.798-.994a7.599 7.599 0 0 1 1.344-.882 9.407 9.407 0 0 1-.679-.805 3.61 3.61 0 0 1-.434-.784 2.43 2.43 0 0 1-.147-.847c0-.42.109-.798.329-1.134.224-.336.532-.602.924-.798.392-.196.844-.294 1.358-.294Zm.049.889c-.444.005-.782.133-1.015.385a1.245 1.245 0 0 0-.343.875c0 .229.049.457.147.686.098.224.214.43.35.616.135.187.256.338.364.455l.245.273c.49-.285.863-.539 1.12-.763.256-.224.431-.434.525-.63.098-.2.147-.401.147-.602 0-.313-.077-.565-.231-.756a1.25 1.25 0 0 0-.581-.413 1.931 1.931 0 0 0-.728-.126Zm-.742 4.557a3.99 3.99 0 0 0-1.197.973 1.805 1.805 0 0 0-.434 1.281c.018.331.116.618.294.861.177.238.406.422.686.553.284.13.592.196.924.196a2.94 2.94 0 0 0 1.183-.259c.396-.177.744-.41 1.043-.7l-2.499-2.905Zm13.241 4.97c-.668 0-1.251-.142-1.75-.427a2.92 2.92 0 0 1-1.162-1.267c-.276-.555-.413-1.234-.413-2.037 0-.756.128-1.419.385-1.988.256-.57.632-1.01 1.127-1.323.499-.317 1.103-.476 1.813-.476.667 0 1.246.147 1.736.441.494.29.877.716 1.148 1.281.27.565.406 1.253.406 2.065 0 .737-.126 1.386-.378 1.946-.248.56-.616.999-1.106 1.316-.486.313-1.088.469-1.806.469Zm0-1.022c.434 0 .8-.11 1.099-.329.298-.22.525-.534.679-.945.154-.41.231-.898.231-1.463a4.45 4.45 0 0 0-.203-1.393c-.136-.415-.353-.744-.651-.987-.294-.243-.679-.364-1.155-.364-.439 0-.81.11-1.113.329-.304.215-.535.527-.693.938-.154.41-.231.903-.231 1.477 0 .509.07.97.21 1.386.14.415.359.744.658.987.298.243.688.364 1.169.364Zm8.561 1.022c-.425 0-.784-.056-1.078-.168a2.223 2.223 0 0 1-.714-.427 2.34 2.34 0 0 1-.434-.539 3.05 3.05 0 0 1-.224-.49l-.14 1.484h-.987V84.598h1.302v4.312c.061-.121.152-.254.273-.399.126-.145.287-.285.483-.42a2.757 2.757 0 0 1 1.617-.469c.905 0 1.624.315 2.156.945.537.63.805 1.559.805 2.786 0 .76-.114 1.426-.343 1.995-.229.565-.569 1.006-1.022 1.323-.453.313-1.017.469-1.694.469Zm-.231-.994c.588 0 1.066-.226 1.435-.679.369-.457.553-1.183.553-2.177 0-.845-.173-1.498-.518-1.96-.341-.467-.84-.7-1.498-.7-.481 0-.868.105-1.162.315-.289.205-.504.506-.644.903-.135.397-.205.877-.21 1.442 0 1.013.156 1.743.469 2.191.317.443.842.665 1.575.665Zm6.9.994c-.467 0-.88-.082-1.239-.245a2.003 2.003 0 0 1-.847-.721c-.201-.313-.301-.69-.301-1.134 0-.803.28-1.4.84-1.792.56-.392 1.458-.602 2.695-.63l1.295-.035v-.567c0-.443-.133-.793-.399-1.05-.266-.261-.679-.392-1.239-.392a2.135 2.135 0 0 0-1.099.294c-.313.191-.516.504-.609.938h-1.141c.028-.471.161-.868.399-1.19.238-.327.569-.574.994-.742.429-.168.936-.252 1.519-.252.63 0 1.153.089 1.568.266.42.177.733.439.938.784.21.345.315.77.315 1.274V95h-1.106l-.091-1.358c-.28.565-.637.957-1.071 1.176a3.131 3.131 0 0 1-1.421.322Zm.392-.931c.243 0 .483-.044.721-.133.243-.089.464-.208.665-.357a1.95 1.95 0 0 0 .476-.511 1.14 1.14 0 0 0 .189-.588v-1.239l-1.078.021c-.551.01-1.013.065-1.386.168-.369.103-.646.264-.833.483-.182.22-.273.506-.273.861 0 .406.14.723.42.952.285.229.651.343 1.099.343Zm8.844-5.502h-1.631v4.501c0 .257.026.446.077.567a.4.4 0 0 0 .273.224c.131.033.308.049.532.049h.791v.868c-.089.033-.224.06-.406.084a5.243 5.243 0 0 1-.665.035c-.499 0-.887-.068-1.162-.203a1.16 1.16 0 0 1-.581-.602c-.107-.266-.161-.593-.161-.98v-4.543h-1.176v-.945h1.211l.315-2.107h.952v2.1h1.631v.952Zm6.913 6.384c-.392 0-.709-.054-.952-.161a1.34 1.34 0 0 1-.553-.434 1.655 1.655 0 0 1-.259-.623 4.222 4.222 0 0 1-.063-.735v-8.54h1.274v8.414c0 .364.07.637.21.819a.808.808 0 0 0 .602.301l.392.007v.84a2.497 2.497 0 0 1-.336.077 1.614 1.614 0 0 1-.315.035Zm4.277.049c-.467 0-.88-.082-1.239-.245a2.003 2.003 0 0 1-.847-.721c-.201-.313-.301-.69-.301-1.134 0-.803.28-1.4.84-1.792.56-.392 1.458-.602 2.695-.63l1.295-.035v-.567c0-.443-.133-.793-.399-1.05-.266-.261-.679-.392-1.239-.392a2.135 2.135 0 0 0-1.099.294c-.313.191-.516.504-.609.938h-1.141c.028-.471.161-.868.399-1.19.238-.327.569-.574.994-.742.429-.168.936-.252 1.519-.252.63 0 1.153.089 1.568.266.42.177.733.439.938.784.21.345.315.77.315 1.274V95h-1.106l-.091-1.358c-.28.565-.637.957-1.071 1.176a3.131 3.131 0 0 1-1.421.322Zm.392-.931c.243 0 .483-.044.721-.133.243-.089.464-.208.665-.357a1.95 1.95 0 0 0 .476-.511 1.14 1.14 0 0 0 .189-.588v-1.239l-1.078.021c-.551.01-1.013.065-1.386.168-.369.103-.646.264-.833.483-.182.22-.273.506-.273.861 0 .406.14.723.42.952.285.229.651.343 1.099.343Zm5.508.791v-7.238h1.253v1.05c.117-.2.278-.39.483-.567.21-.177.462-.32.756-.427a3.038 3.038 0 0 1 1.029-.161c.458 0 .878.091 1.26.273.388.182.696.467.924.854.234.383.35.877.35 1.484V95h-1.295v-4.606c0-.565-.149-.982-.448-1.253-.294-.275-.676-.413-1.148-.413a2.59 2.59 0 0 0-.917.161 1.575 1.575 0 0 0-.693.476c-.177.21-.266.476-.266.798V95h-1.288Zm11.132 2.394c-1.138 0-2.025-.166-2.66-.497-.63-.327-.945-.796-.945-1.407 0-.261.061-.483.182-.665a1.73 1.73 0 0 1 .434-.462 3.22 3.22 0 0 1 .469-.287 2.18 2.18 0 0 0 .28-.161 27.19 27.19 0 0 0-.301-.175 1.105 1.105 0 0 1-.308-.28.736.736 0 0 1-.133-.455c0-.229.108-.439.322-.63.215-.191.532-.334.952-.427a2.558 2.558 0 0 1-.994-.854 2.032 2.032 0 0 1-.357-1.155c0-.467.126-.873.378-1.218.257-.345.621-.609 1.092-.791.472-.187 1.032-.28 1.68-.28.472 0 .868.056 1.19.168.322.107.621.261.896.462.075-.033.192-.082.35-.147a30.7 30.7 0 0 1 .539-.224l.546-.224c.173-.075.311-.13.413-.168l-.007 1.197-1.267.238c.07.15.126.313.168.49.047.177.07.343.07.497 0 .425-.112.81-.336 1.155-.219.345-.553.62-1.001.826-.448.205-1.008.308-1.68.308h-.217l-.217-.014c-.494.014-.835.07-1.022.168-.186.093-.28.198-.28.315 0 .135.105.229.315.28.21.051.567.096 1.071.133l.672.035c.271.014.57.033.896.056.761.047 1.347.24 1.757.581.411.34.616.8.616 1.379 0 .658-.294 1.195-.882 1.61-.588.415-1.481.623-2.681.623Zm.231-.833c.668 0 1.179-.1 1.533-.301a.98.98 0 0 0 .532-.91.874.874 0 0 0-.329-.707c-.214-.187-.543-.294-.987-.322l-2.03-.133a1.096 1.096 0 0 0-.567.14 1.48 1.48 0 0 0-.504.413.969.969 0 0 0-.203.602c0 .383.208.681.623.896.42.215 1.064.322 1.932.322Zm-.224-5.166c.523 0 .943-.121 1.26-.364.322-.243.483-.602.483-1.078 0-.49-.161-.863-.483-1.12-.317-.257-.737-.385-1.26-.385-.527 0-.954.13-1.281.392-.322.257-.483.628-.483 1.113 0 .457.154.812.462 1.064.308.252.742.378 1.302.378Zm7.946 3.745c-.504 0-.973-.077-1.407-.231a2.555 2.555 0 0 1-1.071-.735c-.285-.336-.464-.763-.539-1.281h1.176a1.6 1.6 0 0 0 .35.714c.173.187.387.329.644.427.257.093.537.14.84.14.485 0 .877-.091 1.176-.273.299-.182.448-.462.448-.84 0-.266-.079-.478-.238-.637-.154-.163-.394-.282-.721-.357l-1.498-.371c-.583-.14-1.05-.36-1.4-.658-.35-.299-.525-.716-.525-1.253a1.995 1.995 0 0 1 .301-1.12c.205-.322.513-.576.924-.763.411-.187.922-.28 1.533-.28.784 0 1.416.177 1.897.532.485.35.737.866.756 1.547h-1.141a1.183 1.183 0 0 0-.469-.819c-.261-.205-.614-.308-1.057-.308-.462 0-.838.093-1.127.28-.289.182-.434.467-.434.854 0 .257.103.46.308.609.205.145.509.266.91.364l1.449.364c.336.089.611.205.826.35.219.145.392.306.518.483.131.177.222.364.273.56.056.191.084.376.084.553 0 .443-.112.826-.336 1.148-.219.317-.537.565-.952.742-.411.173-.91.259-1.498.259Zm7.255 0a3.808 3.808 0 0 1-1.071-.161 2.765 2.765 0 0 1-.882-.469 2.21 2.21 0 0 1-.609-.763 2.489 2.489 0 0 1-.217-1.071v-4.914h1.295v4.781c0 .471.145.854.434 1.148.294.294.735.441 1.323.441.532 0 .959-.138 1.281-.413.327-.28.49-.695.49-1.246v-4.711h1.288V95h-1.029l-.133-1.386c-.089.364-.24.658-.455.882-.21.224-.464.39-.763.497a2.75 2.75 0 0 1-.952.147Zm5.434-.14v-7.238h1.253v1.05c.116-.2.277-.39.483-.567.21-.177.462-.32.756-.427a3.03 3.03 0 0 1 1.029-.161c.457 0 .877.091 1.26.273.387.182.695.467.924.854.233.383.35.877.35 1.484V95h-1.295v-4.606c0-.565-.15-.982-.448-1.253-.294-.275-.677-.413-1.148-.413-.327 0-.633.054-.917.161a1.563 1.563 0 0 0-.693.476c-.178.21-.266.476-.266.798V95h-1.288Zm11.132 2.394c-1.139 0-2.026-.166-2.66-.497-.63-.327-.945-.796-.945-1.407 0-.261.06-.483.182-.665.121-.187.266-.34.434-.462.168-.121.324-.217.469-.287.144-.075.238-.128.28-.161l-.301-.175a1.078 1.078 0 0 1-.308-.28.73.73 0 0 1-.133-.455c0-.229.107-.439.322-.63.214-.191.532-.334.952-.427a2.55 2.55 0 0 1-.994-.854 2.032 2.032 0 0 1-.357-1.155c0-.467.126-.873.378-1.218.256-.345.62-.609 1.092-.791.471-.187 1.031-.28 1.68-.28.471 0 .868.056 1.19.168.322.107.62.261.896.462.074-.033.191-.082.35-.147.163-.07.343-.145.539-.224l.546-.224c.172-.075.31-.13.413-.168l-.007 1.197-1.267.238c.07.15.126.313.168.49.046.177.07.343.07.497 0 .425-.112.81-.336 1.155-.22.345-.553.62-1.001.826-.448.205-1.008.308-1.68.308h-.217l-.217-.014c-.495.014-.836.07-1.022.168-.187.093-.28.198-.28.315 0 .135.105.229.315.28.21.051.567.096 1.071.133l.672.035c.27.014.569.033.896.056.76.047 1.346.24 1.757.581.41.34.616.8.616 1.379 0 .658-.294 1.195-.882 1.61-.588.415-1.482.623-2.681.623Zm.231-.833c.667 0 1.178-.1 1.533-.301a.982.982 0 0 0 .532-.91c0-.29-.11-.525-.329-.707-.215-.187-.544-.294-.987-.322l-2.03-.133a1.096 1.096 0 0 0-.567.14 1.48 1.48 0 0 0-.504.413.963.963 0 0 0-.203.602c0 .383.207.681.623.896.42.215 1.064.322 1.932.322Zm-.224-5.166c.522 0 .942-.121 1.26-.364.322-.243.483-.602.483-1.078 0-.49-.161-.863-.483-1.12-.318-.257-.738-.385-1.26-.385-.528 0-.955.13-1.281.392-.322.257-.483.628-.483 1.113 0 .457.154.812.462 1.064.308.252.742.378 1.302.378Zm11.296 3.745c-.938 0-1.682-.322-2.233-.966-.551-.644-.826-1.584-.826-2.821 0-.751.11-1.407.329-1.967.224-.56.555-.994.994-1.302.439-.308.985-.462 1.638-.462.345 0 .651.044.917.133.271.089.504.2.7.336.196.135.355.275.476.42.126.145.219.278.28.399v-4.312h1.302V95h-.987l-.14-1.484a3.05 3.05 0 0 1-.224.49 2.34 2.34 0 0 1-.434.539 2.206 2.206 0 0 1-.721.427c-.289.112-.646.168-1.071.168Zm.231-.994c.733 0 1.255-.222 1.568-.665.317-.448.476-1.178.476-2.191-.005-.565-.077-1.045-.217-1.442-.135-.397-.35-.698-.644-.903-.289-.21-.674-.315-1.155-.315-.597 0-1.083.212-1.456.637-.373.425-.56 1.099-.56 2.023 0 .905.168 1.608.504 2.107.341.5.835.749 1.484.749Zm6.966-6.384V95h-1.253v-7.238h1.253Zm.028-2.877v1.344h-1.323v-1.344h1.323ZM756.39 95h-1.372l-2.268-3.633-1.428 1.477V95h-1.288V84.598h1.288v6.783l3.402-3.619h1.484l-2.611 2.758L756.39 95Zm2.946-7.238V95h-1.253v-7.238h1.253Zm.028-2.877v1.344h-1.323v-1.344h1.323ZM761.696 95v-7.238h1.232v1.393a2.28 2.28 0 0 1 .511-.854 2.12 2.12 0 0 1 .749-.511 2.391 2.391 0 0 1 1.197-.147.654.654 0 0 1 .238.07v1.253a.81.81 0 0 0-.273-.063 2.157 2.157 0 0 0-.273-.021c-.289-.019-.56 0-.812.056a1.8 1.8 0 0 0-.665.273c-.191.13-.343.303-.455.518-.107.21-.161.467-.161.77V95h-1.288Zm6.828-7.238V95h-1.253v-7.238h1.253Zm.028-2.877v1.344h-1.323v-1.344h1.323ZM770.884 95v-7.238h1.246v1.05c.2-.317.476-.595.826-.833s.805-.357 1.365-.357c.261 0 .527.044.798.133.275.089.527.222.756.399.228.177.406.394.532.651a2.5 2.5 0 0 1 .91-.854c.382-.22.814-.329 1.295-.329.252 0 .515.04.791.119.275.075.529.21.763.406.238.191.431.46.581.805.149.34.224.78.224 1.316V95h-1.302v-4.606c0-.439-.07-.777-.21-1.015a1.168 1.168 0 0 0-.553-.511 1.781 1.781 0 0 0-.721-.147c-.224 0-.462.044-.714.133a1.467 1.467 0 0 0-.644.448c-.178.21-.266.497-.266.861V95h-1.288v-4.984c0-.285-.077-.523-.231-.714a1.422 1.422 0 0 0-.567-.434 1.665 1.665 0 0 0-.672-.147c-.248 0-.497.049-.749.147a1.505 1.505 0 0 0-.63.469c-.168.21-.252.485-.252.826V95h-1.288Zm18.469 0h-1.372l-2.268-3.633-1.428 1.477V95h-1.288V84.598h1.288v6.783l3.402-3.619h1.484l-2.611 2.758 2.793 4.48Zm3.357.14c-.467 0-.88-.082-1.239-.245a1.997 1.997 0 0 1-.847-.721c-.201-.313-.301-.69-.301-1.134 0-.803.28-1.4.84-1.792.56-.392 1.458-.602 2.695-.63l1.295-.035v-.567c0-.443-.133-.793-.399-1.05-.266-.261-.679-.392-1.239-.392a2.132 2.132 0 0 0-1.099.294c-.313.191-.516.504-.609.938h-1.141c.028-.471.161-.868.399-1.19.238-.327.569-.574.994-.742.429-.168.935-.252 1.519-.252.63 0 1.152.089 1.568.266.42.177.732.439.938.784.21.345.315.77.315 1.274V95h-1.106l-.091-1.358c-.28.565-.637.957-1.071 1.176a3.13 3.13 0 0 1-1.421.322Zm.392-.931c.242 0 .483-.044.721-.133.242-.089.464-.208.665-.357.2-.154.359-.324.476-.511a1.14 1.14 0 0 0 .189-.588v-1.239l-1.078.021c-.551.01-1.013.065-1.386.168-.369.103-.647.264-.833.483-.182.22-.273.506-.273.861 0 .406.14.723.42.952.284.229.651.343 1.099.343Zm5.508.791v-7.238h1.253v1.05c.117-.2.278-.39.483-.567.21-.177.462-.32.756-.427a3.038 3.038 0 0 1 1.029-.161c.457 0 .877.091 1.26.273.387.182.695.467.924.854.233.383.35.877.35 1.484V95h-1.295v-4.606c0-.565-.149-.982-.448-1.253-.294-.275-.677-.413-1.148-.413-.327 0-.632.054-.917.161a1.563 1.563 0 0 0-.693.476c-.177.21-.266.476-.266.798V95h-1.288Zm17.663 0h-1.372l-2.268-3.633-1.428 1.477V95h-1.288V84.598h1.288v6.783l3.402-3.619h1.484l-2.611 2.758 2.793 4.48Zm2.142-3.318c0 .457.075.873.224 1.246.154.369.385.663.693.882.313.22.702.329 1.169.329.462 0 .859-.107 1.19-.322.336-.215.551-.525.644-.931h1.225c-.089.49-.285.903-.588 1.239-.303.336-.67.59-1.099.763a3.653 3.653 0 0 1-1.344.252c-.677 0-1.272-.147-1.785-.441a3.065 3.065 0 0 1-1.204-1.267c-.289-.55-.434-1.211-.434-1.981 0-.76.131-1.428.392-2.002a3.083 3.083 0 0 1 1.134-1.344c.499-.322 1.099-.483 1.799-.483.681 0 1.258.147 1.729.441.471.294.828.71 1.071 1.246.247.532.371 1.164.371 1.897v.476h-5.187Zm.007-.875h3.934c0-.415-.07-.789-.21-1.12-.14-.336-.355-.6-.644-.791-.285-.196-.644-.294-1.078-.294-.453 0-.828.11-1.127.329a2.01 2.01 0 0 0-.665.833 2.516 2.516 0 0 0-.21 1.043Zm11.929 4.284c-.392 0-.709-.054-.952-.161a1.34 1.34 0 0 1-.553-.434 1.655 1.655 0 0 1-.259-.623 4.222 4.222 0 0 1-.063-.735v-8.54h1.274v8.414c0 .364.07.637.21.819a.806.806 0 0 0 .602.301l.392.007v.84a2.497 2.497 0 0 1-.336.077 1.63 1.63 0 0 1-.315.035Zm5.111.049c-.668 0-1.251-.142-1.75-.427a2.92 2.92 0 0 1-1.162-1.267c-.276-.555-.413-1.234-.413-2.037 0-.756.128-1.419.385-1.988.256-.57.632-1.01 1.127-1.323.499-.317 1.103-.476 1.813-.476.667 0 1.246.147 1.736.441.494.29.877.716 1.148 1.281.27.565.406 1.253.406 2.065 0 .737-.126 1.386-.378 1.946-.248.56-.616.999-1.106 1.316-.486.313-1.088.469-1.806.469Zm0-1.022c.434 0 .8-.11 1.099-.329.298-.22.525-.534.679-.945.154-.41.231-.898.231-1.463a4.45 4.45 0 0 0-.203-1.393c-.136-.415-.353-.744-.651-.987-.294-.243-.679-.364-1.155-.364-.439 0-.81.11-1.113.329-.304.215-.535.527-.693.938-.154.41-.231.903-.231 1.477 0 .509.07.97.21 1.386.14.415.359.744.658.987.298.243.688.364 1.169.364Zm11.34.882h-1.372l-2.268-3.633-1.428 1.477V95h-1.288V84.598h1.288v6.783l3.402-3.619h1.484l-2.611 2.758 2.793 4.48Zm3.357.14c-.467 0-.88-.082-1.239-.245a2.003 2.003 0 0 1-.847-.721c-.201-.313-.301-.69-.301-1.134 0-.803.28-1.4.84-1.792.56-.392 1.458-.602 2.695-.63l1.295-.035v-.567c0-.443-.133-.793-.399-1.05-.266-.261-.679-.392-1.239-.392a2.135 2.135 0 0 0-1.099.294c-.313.191-.516.504-.609.938h-1.141c.028-.471.161-.868.399-1.19.238-.327.569-.574.994-.742.429-.168.936-.252 1.519-.252.63 0 1.153.089 1.568.266.42.177.733.439.938.784.21.345.315.77.315 1.274V95h-1.106l-.091-1.358c-.28.565-.637.957-1.071 1.176a3.131 3.131 0 0 1-1.421.322Zm.392-.931c.243 0 .483-.044.721-.133.243-.089.464-.208.665-.357a1.95 1.95 0 0 0 .476-.511 1.14 1.14 0 0 0 .189-.588v-1.239l-1.078.021c-.551.01-1.013.065-1.386.168-.369.103-.646.264-.833.483-.182.22-.273.506-.273.861 0 .406.14.723.42.952.285.229.651.343 1.099.343Zm7.968.931c-.504 0-.973-.077-1.407-.231a2.555 2.555 0 0 1-1.071-.735c-.285-.336-.464-.763-.539-1.281h1.176a1.6 1.6 0 0 0 .35.714c.173.187.387.329.644.427.257.093.537.14.84.14.485 0 .877-.091 1.176-.273.299-.182.448-.462.448-.84 0-.266-.079-.478-.238-.637-.154-.163-.394-.282-.721-.357l-1.498-.371c-.583-.14-1.05-.36-1.4-.658-.35-.299-.525-.716-.525-1.253a1.995 1.995 0 0 1 .301-1.12c.205-.322.513-.576.924-.763.411-.187.922-.28 1.533-.28.784 0 1.416.177 1.897.532.485.35.737.866.756 1.547h-1.141a1.183 1.183 0 0 0-.469-.819c-.261-.205-.614-.308-1.057-.308-.462 0-.838.093-1.127.28-.289.182-.434.467-.434.854 0 .257.103.46.308.609.205.145.509.266.91.364l1.449.364c.336.089.611.205.826.35.219.145.392.306.518.483.131.177.222.364.273.56.056.191.084.376.084.553 0 .443-.112.826-.336 1.148-.219.317-.537.565-.952.742-.411.173-.91.259-1.498.259Zm5.995-7.378V95h-1.253v-7.238h1.253Zm.028-2.877v1.344h-1.323v-1.344h1.323ZM530.073 119.14c-.467 0-.88-.082-1.239-.245a2 2 0 0 1-.847-.721c-.201-.313-.301-.691-.301-1.134 0-.803.28-1.4.84-1.792.56-.392 1.458-.602 2.695-.63l1.295-.035v-.567c0-.443-.133-.793-.399-1.05-.266-.261-.679-.392-1.239-.392a2.14 2.14 0 0 0-1.099.294c-.313.191-.516.504-.609.938h-1.141c.028-.471.161-.868.399-1.19.238-.327.569-.574.994-.742.429-.168.936-.252 1.519-.252.63 0 1.153.089 1.568.266.42.177.733.439.938.784.21.345.315.77.315 1.274V119h-1.106l-.091-1.358c-.28.565-.637.957-1.071 1.176a3.127 3.127 0 0 1-1.421.322Zm.392-.931c.243 0 .483-.044.721-.133.243-.089.464-.208.665-.357a1.95 1.95 0 0 0 .476-.511 1.14 1.14 0 0 0 .189-.588v-1.239l-1.078.021c-.551.009-1.013.065-1.386.168-.369.103-.646.264-.833.483-.182.219-.273.506-.273.861 0 .406.14.723.42.952.285.229.651.343 1.099.343Zm5.508.791v-7.238h1.253v1.05c.117-.201.278-.39.483-.567.21-.177.462-.32.756-.427a3.045 3.045 0 0 1 1.029-.161c.458 0 .878.091 1.26.273.388.182.696.467.924.854.234.383.35.877.35 1.484V119h-1.295v-4.606c0-.565-.149-.982-.448-1.253-.294-.275-.676-.413-1.148-.413a2.59 2.59 0 0 0-.917.161 1.575 1.575 0 0 0-.693.476c-.177.21-.266.476-.266.798V119h-1.288Zm10.691.14c-.938 0-1.682-.322-2.233-.966-.55-.644-.826-1.584-.826-2.821 0-.751.11-1.407.329-1.967.224-.56.556-.994.994-1.302.439-.308.985-.462 1.638-.462.346 0 .651.044.917.133.271.089.504.201.7.336.196.135.355.275.476.42.126.145.22.278.28.399v-4.312h1.302V119h-.987l-.14-1.484c-.046.14-.121.303-.224.49a2.308 2.308 0 0 1-.434.539 2.19 2.19 0 0 1-.721.427c-.289.112-.646.168-1.071.168Zm.231-.994c.733 0 1.256-.222 1.568-.665.318-.448.476-1.178.476-2.191-.004-.565-.077-1.045-.217-1.442-.135-.397-.35-.698-.644-.903-.289-.21-.674-.315-1.155-.315-.597 0-1.082.212-1.456.637-.373.425-.56 1.099-.56 2.023 0 .905.168 1.608.504 2.107.341.499.836.749 1.484.749Zm7.487.994c-.467 0-.88-.082-1.239-.245a1.995 1.995 0 0 1-.847-.721c-.201-.313-.301-.691-.301-1.134 0-.803.28-1.4.84-1.792.56-.392 1.458-.602 2.695-.63l1.295-.035v-.567c0-.443-.133-.793-.399-1.05-.266-.261-.679-.392-1.239-.392a2.138 2.138 0 0 0-1.099.294c-.313.191-.516.504-.609.938h-1.141c.028-.471.161-.868.399-1.19.238-.327.569-.574.994-.742.429-.168.935-.252 1.519-.252.63 0 1.152.089 1.568.266.42.177.732.439.938.784.21.345.315.77.315 1.274V119h-1.106l-.091-1.358c-.28.565-.637.957-1.071 1.176a3.13 3.13 0 0 1-1.421.322Zm.392-.931c.242 0 .483-.044.721-.133.242-.089.464-.208.665-.357.2-.154.359-.324.476-.511a1.14 1.14 0 0 0 .189-.588v-1.239l-1.078.021c-.551.009-1.013.065-1.386.168-.369.103-.647.264-.833.483-.182.219-.273.506-.273.861 0 .406.14.723.42.952.284.229.651.343 1.099.343Zm6.929-.84V119h-1.54v-1.631h1.54Zm.007-8.491-.336 7.553h-.868l-.343-7.553h1.547Zm5.578 0h6.307l-.007 1.134h-4.97v3.346h4.466v1.12h-4.466V119h-1.33v-10.122Zm10.719 10.262c-.668 0-1.251-.142-1.75-.427a2.914 2.914 0 0 1-1.162-1.267c-.276-.555-.413-1.234-.413-2.037 0-.756.128-1.419.385-1.988a2.958 2.958 0 0 1 1.127-1.323c.499-.317 1.103-.476 1.813-.476.667 0 1.246.147 1.736.441.494.289.877.716 1.148 1.281.27.565.406 1.253.406 2.065 0 .737-.126 1.386-.378 1.946-.248.56-.616.999-1.106 1.316-.486.313-1.088.469-1.806.469Zm0-1.022c.434 0 .8-.11 1.099-.329.298-.219.525-.534.679-.945.154-.411.231-.898.231-1.463 0-.518-.068-.982-.203-1.393-.136-.415-.353-.744-.651-.987-.294-.243-.679-.364-1.155-.364-.439 0-.81.11-1.113.329-.304.215-.535.527-.693.938-.154.411-.231.903-.231 1.477 0 .509.07.971.21 1.386.14.415.359.744.658.987.298.243.688.364 1.169.364Zm8.429-5.411h-1.631v4.501c0 .257.025.446.077.567a.4.4 0 0 0 .273.224c.13.033.308.049.532.049h.791v.868a1.955 1.955 0 0 1-.406.084 5.311 5.311 0 0 1-.665.035c-.5 0-.887-.068-1.162-.203a1.155 1.155 0 0 1-.581-.602c-.108-.266-.161-.593-.161-.98v-4.543h-1.176v-.945h1.211l.315-2.107h.952v2.1h1.631v.952Zm4.545 6.433c-.667 0-1.25-.142-1.75-.427-.499-.289-.886-.712-1.162-1.267-.275-.555-.413-1.234-.413-2.037 0-.756.129-1.419.385-1.988a2.97 2.97 0 0 1 1.127-1.323c.5-.317 1.104-.476 1.813-.476.668 0 1.246.147 1.736.441.495.289.878.716 1.148 1.281.271.565.406 1.253.406 2.065 0 .737-.126 1.386-.378 1.946a2.94 2.94 0 0 1-1.106 1.316c-.485.313-1.087.469-1.806.469Zm0-1.022c.434 0 .801-.11 1.099-.329.299-.219.525-.534.679-.945.154-.411.231-.898.231-1.463 0-.518-.067-.982-.203-1.393-.135-.415-.352-.744-.651-.987-.294-.243-.679-.364-1.155-.364-.438 0-.809.11-1.113.329-.303.215-.534.527-.693.938-.154.411-.231.903-.231 1.477 0 .509.07.971.21 1.386.14.415.36.744.658.987.299.243.689.364 1.169.364Zm11.82-5.411h-1.631v4.501c0 .257.026.446.077.567a.4.4 0 0 0 .273.224c.131.033.308.049.532.049h.791v.868a1.955 1.955 0 0 1-.406.084 5.3 5.3 0 0 1-.665.035c-.499 0-.887-.068-1.162-.203a1.16 1.16 0 0 1-.581-.602c-.107-.266-.161-.593-.161-.98v-4.543h-1.176v-.945h1.211l.315-2.107h.952v2.1h1.631v.952Zm3.26-.945V119h-1.253v-7.238h1.253Zm.028-2.877v1.344h-1.323v-1.344h1.323Zm4.861 10.255c-.938 0-1.683-.322-2.233-.966-.551-.644-.826-1.584-.826-2.821 0-.751.109-1.407.329-1.967.224-.56.555-.994.994-1.302.438-.308.984-.462 1.638-.462.345 0 .651.044.917.133.27.089.504.201.7.336.196.135.354.275.476.42.126.145.219.278.28.399v-4.312h1.302V119h-.987l-.14-1.484c-.047.14-.122.303-.224.49a2.361 2.361 0 0 1-.434.539 2.2 2.2 0 0 1-.721.427c-.29.112-.647.168-1.071.168Zm.231-.994c.732 0 1.255-.222 1.568-.665.317-.448.476-1.178.476-2.191-.005-.565-.077-1.045-.217-1.442-.136-.397-.35-.698-.644-.903-.29-.21-.675-.315-1.155-.315-.598 0-1.083.212-1.456.637-.374.425-.56 1.099-.56 2.023 0 .905.168 1.608.504 2.107.34.499.835.749 1.484.749Zm7.486.994c-.467 0-.88-.082-1.239-.245a1.995 1.995 0 0 1-.847-.721c-.201-.313-.301-.691-.301-1.134 0-.803.28-1.4.84-1.792.56-.392 1.458-.602 2.695-.63l1.295-.035v-.567c0-.443-.133-.793-.399-1.05-.266-.261-.679-.392-1.239-.392a2.138 2.138 0 0 0-1.099.294c-.313.191-.516.504-.609.938h-1.141c.028-.471.161-.868.399-1.19.238-.327.569-.574.994-.742.429-.168.935-.252 1.519-.252.63 0 1.152.089 1.568.266.42.177.732.439.938.784.21.345.315.77.315 1.274V119h-1.106l-.091-1.358c-.28.565-.637.957-1.071 1.176a3.13 3.13 0 0 1-1.421.322Zm.392-.931c.242 0 .483-.044.721-.133.242-.089.464-.208.665-.357.2-.154.359-.324.476-.511a1.14 1.14 0 0 0 .189-.588v-1.239l-1.078.021c-.551.009-1.013.065-1.386.168-.369.103-.647.264-.833.483-.182.219-.273.506-.273.861 0 .406.14.723.42.952.284.229.651.343 1.099.343Zm11.864.791h-1.372l-2.268-3.633-1.428 1.477V119h-1.288v-10.402h1.288v6.783l3.402-3.619h1.484l-2.611 2.758 2.793 4.48Zm8.35.14c-.425 0-.784-.056-1.078-.168a2.217 2.217 0 0 1-.714-.427 2.335 2.335 0 0 1-.434-.539 3.062 3.062 0 0 1-.224-.49l-.14 1.484h-.987v-10.402h1.302v4.312c.061-.121.152-.254.273-.399.126-.145.287-.285.483-.42a2.757 2.757 0 0 1 1.617-.469c.905 0 1.624.315 2.156.945.537.63.805 1.559.805 2.786 0 .761-.114 1.426-.343 1.995-.229.565-.569 1.006-1.022 1.323-.453.313-1.017.469-1.694.469Zm-.231-.994c.588 0 1.066-.226 1.435-.679.369-.457.553-1.183.553-2.177 0-.845-.173-1.498-.518-1.96-.341-.467-.84-.7-1.498-.7-.481 0-.868.105-1.162.315-.289.205-.504.506-.644.903-.135.397-.205.877-.21 1.442 0 1.013.156 1.743.469 2.191.317.443.842.665 1.575.665Zm7.857.994c-.667 0-1.25-.142-1.75-.427-.499-.289-.886-.712-1.162-1.267-.275-.555-.413-1.234-.413-2.037 0-.756.129-1.419.385-1.988a2.97 2.97 0 0 1 1.127-1.323c.5-.317 1.104-.476 1.813-.476.668 0 1.246.147 1.736.441.495.289.878.716 1.148 1.281.271.565.406 1.253.406 2.065 0 .737-.126 1.386-.378 1.946a2.94 2.94 0 0 1-1.106 1.316c-.485.313-1.087.469-1.806.469Zm0-1.022c.434 0 .801-.11 1.099-.329.299-.219.525-.534.679-.945.154-.411.231-.898.231-1.463 0-.518-.067-.982-.203-1.393-.135-.415-.352-.744-.651-.987-.294-.243-.679-.364-1.155-.364-.438 0-.809.11-1.113.329-.303.215-.534.527-.693.938-.154.411-.231.903-.231 1.477 0 .509.07.971.21 1.386.14.415.36.744.658.987.299.243.689.364 1.169.364Zm6.812.973c-.392 0-.71-.054-.952-.161a1.332 1.332 0 0 1-.553-.434 1.64 1.64 0 0 1-.259-.623 4.222 4.222 0 0 1-.063-.735v-8.54h1.274v8.414c0 .364.07.637.21.819a.805.805 0 0 0 .602.301l.392.007v.84a2.57 2.57 0 0 1-.336.077 1.654 1.654 0 0 1-.315.035Zm3.157-3.409c0 .457.075.873.224 1.246.154.369.385.663.693.882.313.219.702.329 1.169.329.462 0 .859-.107 1.19-.322.336-.215.551-.525.644-.931h1.225c-.089.49-.285.903-.588 1.239-.303.336-.67.59-1.099.763a3.653 3.653 0 0 1-1.344.252c-.677 0-1.272-.147-1.785-.441a3.063 3.063 0 0 1-1.204-1.267c-.289-.551-.434-1.211-.434-1.981 0-.761.131-1.428.392-2.002a3.083 3.083 0 0 1 1.134-1.344c.499-.322 1.099-.483 1.799-.483.681 0 1.258.147 1.729.441.471.294.828.709 1.071 1.246.247.532.371 1.164.371 1.897v.476h-5.187Zm.007-.875h3.934c0-.415-.07-.789-.21-1.12-.14-.336-.355-.6-.644-.791-.285-.196-.644-.294-1.078-.294-.453 0-.828.11-1.127.329a2.01 2.01 0 0 0-.665.833 2.517 2.517 0 0 0-.21 1.043Zm6.958 4.193v-10.402h1.26v4.228c.121-.201.284-.387.49-.56.205-.177.455-.32.749-.427a2.859 2.859 0 0 1 1.022-.168c.471 0 .898.089 1.281.266.382.173.686.42.91.742.224.322.336.705.336 1.148V119h-1.295v-4.914c0-.434-.15-.768-.448-1.001-.294-.238-.679-.357-1.155-.357-.322 0-.626.054-.91.161a1.563 1.563 0 0 0-.693.476c-.173.21-.259.478-.259.805V119h-1.288Zm13.12.091c-.392 0-.71-.054-.952-.161a1.332 1.332 0 0 1-.553-.434 1.64 1.64 0 0 1-.259-.623 4.222 4.222 0 0 1-.063-.735v-8.54h1.274v8.414c0 .364.07.637.21.819a.805.805 0 0 0 .602.301l.392.007v.84a2.57 2.57 0 0 1-.336.077 1.654 1.654 0 0 1-.315.035Zm3.157-3.409c0 .457.075.873.224 1.246.154.369.385.663.693.882.313.219.703.329 1.169.329.462 0 .859-.107 1.19-.322.336-.215.551-.525.644-.931h1.225c-.088.49-.284.903-.588 1.239a2.93 2.93 0 0 1-1.099.763 3.653 3.653 0 0 1-1.344.252c-.676 0-1.271-.147-1.785-.441a3.07 3.07 0 0 1-1.204-1.267c-.289-.551-.434-1.211-.434-1.981 0-.761.131-1.428.392-2.002a3.096 3.096 0 0 1 1.134-1.344c.5-.322 1.099-.483 1.799-.483.682 0 1.258.147 1.729.441.472.294.829.709 1.071 1.246.248.532.371 1.164.371 1.897v.476h-5.187Zm.007-.875h3.934c0-.415-.07-.789-.21-1.12-.14-.336-.354-.6-.644-.791-.284-.196-.644-.294-1.078-.294-.452 0-.828.11-1.127.329a2.017 2.017 0 0 0-.665.833 2.55 2.55 0 0 0-.21 1.043Zm10.535 4.333c-.425 0-.784-.056-1.078-.168a2.217 2.217 0 0 1-.714-.427 2.335 2.335 0 0 1-.434-.539 3.062 3.062 0 0 1-.224-.49l-.14 1.484h-.987v-10.402h1.302v4.312c.061-.121.152-.254.273-.399.126-.145.287-.285.483-.42a2.757 2.757 0 0 1 1.617-.469c.905 0 1.624.315 2.156.945.537.63.805 1.559.805 2.786 0 .761-.114 1.426-.343 1.995-.229.565-.569 1.006-1.022 1.323-.453.313-1.017.469-1.694.469Zm-.231-.994c.588 0 1.066-.226 1.435-.679.369-.457.553-1.183.553-2.177 0-.845-.173-1.498-.518-1.96-.341-.467-.84-.7-1.498-.7-.481 0-.868.105-1.162.315-.289.205-.504.506-.644.903-.135.397-.205.877-.21 1.442 0 1.013.156 1.743.469 2.191.317.443.842.665 1.575.665Zm6.38-6.384V119h-1.253v-7.238h1.253Zm.028-2.877v1.344h-1.323v-1.344h1.323ZM699.161 119v-10.402h1.26v4.228c.121-.201.285-.387.49-.56.205-.177.455-.32.749-.427a2.862 2.862 0 0 1 1.022-.168c.471 0 .898.089 1.281.266.383.173.686.42.91.742.224.322.336.705.336 1.148V119h-1.295v-4.914c0-.434-.149-.768-.448-1.001-.294-.238-.679-.357-1.155-.357-.322 0-.625.054-.91.161a1.563 1.563 0 0 0-.693.476c-.173.21-.259.478-.259.805V119h-1.288Zm13.726.14c-.938 0-1.682-.322-2.233-.966-.551-.644-.826-1.584-.826-2.821 0-.751.11-1.407.329-1.967.224-.56.555-.994.994-1.302.439-.308.985-.462 1.638-.462.345 0 .651.044.917.133.271.089.504.201.7.336.196.135.355.275.476.42.126.145.219.278.28.399v-4.312h1.302V119h-.987l-.14-1.484c-.047.14-.121.303-.224.49a2.335 2.335 0 0 1-.434.539 2.2 2.2 0 0 1-.721.427c-.289.112-.646.168-1.071.168Zm.231-.994c.733 0 1.255-.222 1.568-.665.317-.448.476-1.178.476-2.191-.005-.565-.077-1.045-.217-1.442-.135-.397-.35-.698-.644-.903-.289-.21-.674-.315-1.155-.315-.597 0-1.083.212-1.456.637-.373.425-.56 1.099-.56 2.023 0 .905.168 1.608.504 2.107.341.499.835.749 1.484.749Zm7.486.994c-.466 0-.879-.082-1.239-.245a2.007 2.007 0 0 1-.847-.721c-.2-.313-.301-.691-.301-1.134 0-.803.28-1.4.84-1.792.56-.392 1.459-.602 2.695-.63l1.295-.035v-.567c0-.443-.133-.793-.399-1.05-.266-.261-.679-.392-1.239-.392a2.144 2.144 0 0 0-1.099.294c-.312.191-.515.504-.609.938h-1.141c.028-.471.161-.868.399-1.19.238-.327.57-.574.994-.742.43-.168.936-.252 1.519-.252.63 0 1.153.089 1.568.266.42.177.733.439.938.784.21.345.315.77.315 1.274V119h-1.106l-.091-1.358c-.28.565-.637.957-1.071 1.176a3.127 3.127 0 0 1-1.421.322Zm.392-.931c.243 0 .483-.044.721-.133.243-.089.465-.208.665-.357.201-.154.36-.324.476-.511.122-.191.185-.387.189-.588v-1.239l-1.078.021c-.55.009-1.012.065-1.386.168-.368.103-.646.264-.833.483-.182.219-.273.506-.273.861 0 .406.14.723.42.952.285.229.651.343 1.099.343Zm5.509.791v-7.238h1.232v1.393c.121-.345.291-.63.511-.854.219-.229.469-.399.749-.511a2.383 2.383 0 0 1 1.197-.147.654.654 0 0 1 .238.07v1.253a.796.796 0 0 0-.273-.063 2.184 2.184 0 0 0-.273-.021c-.29-.019-.56 0-.812.056a1.79 1.79 0 0 0-.665.273 1.393 1.393 0 0 0-.455.518c-.108.21-.161.467-.161.77V119h-1.288Zm6.827-7.238V119h-1.253v-7.238h1.253Zm.028-2.877v1.344h-1.323v-1.344h1.323ZM740.37 119v-8.057h-1.953v-.847c.606 0 1.078-.044 1.414-.133.336-.089.574-.224.714-.406a1.16 1.16 0 0 0 .238-.679h.924V119h-1.337Zm7.388-10.262c1.096 0 1.969.441 2.618 1.323.653.877.98 2.177.98 3.899 0 1.713-.325 3.008-.973 3.885-.649.873-1.529 1.309-2.639 1.309-1.106 0-1.984-.434-2.632-1.302-.649-.873-.973-2.163-.973-3.871 0-1.153.149-2.119.448-2.898.298-.779.718-1.365 1.26-1.757.541-.392 1.178-.588 1.911-.588Zm0 9.296c.723 0 1.269-.317 1.638-.952.373-.639.56-1.678.56-3.115 0-1.465-.189-2.52-.567-3.164-.374-.649-.92-.973-1.638-.973-.714 0-1.265.327-1.652.98-.383.649-.574 1.701-.574 3.157 0 1.433.191 2.469.574 3.108.382.639.935.959 1.659.959Zm8.845.966v-10.122h1.792l3.052 8.358 3.094-8.358h1.785V119h-1.337v-8.183L762.056 119h-1.211l-2.912-8.106V119h-1.33Zm12.4 0v-10.122h3.255c1.232 0 2.163.226 2.793.679.635.453.952 1.106.952 1.96 0 .537-.14.996-.42 1.379-.275.383-.761.698-1.456.945.397.084.73.205 1.001.364.275.159.495.345.658.56.168.21.287.443.357.7.075.257.112.527.112.812 0 .915-.327 1.598-.98 2.051-.649.448-1.619.672-2.912.672h-3.36Zm1.295-1.078h2.051c.845 0 1.486-.138 1.925-.413.443-.28.665-.709.665-1.288 0-.425-.11-.768-.329-1.029a1.822 1.822 0 0 0-.875-.581 3.936 3.936 0 0 0-1.232-.182h-2.205v3.493Zm0-4.592h2.205c.266 0 .53-.026.791-.077.261-.051.502-.14.721-.266a1.53 1.53 0 0 0 .532-.504c.135-.215.203-.483.203-.805 0-.588-.226-1.022-.679-1.302-.448-.285-1.031-.427-1.75-.427h-2.023v3.381Z"/>
  <mask id="a" width="511" height="168" x="0" y="0" maskUnits="userSpaceOnUse" style="mask-type:alpha">
    <path fill="#fff" d="M0 16C0 7.163 7.163 0 16 0h495v168H16c-8.837 0-16-7.163-16-16V16Z"/>
  </mask>
  <g mask="url(#a)">
    <path fill="#EBF3FA" d="M5.233 232.001S-73.304 46.177 95.618 11.632C201.022-9.926 198.266-84.866 347.41-79.75c152.73 5.238 92.583 149.657 112.401 182.691 19.818 33.034 70.671 46.288 52.23 129.058H5.233v.002Z"/>
    <path fill="#DFEBFD" d="M351.06-20.66c-4.191-9.215-20.356-3.707-20.356-3.707S322.065-5.84 318.841-4.944c-3.224.896 4.214-17.247 4.214-17.247-6.464.356-21.491 10.41-21.491 10.41s4.131 19.48.781 19.573c-3.351.094-2.755-17.43-2.755-17.43C293.711-6.908 289.068.968 289.068.968c-5.386 12.501 11.353 18.599 11.353 18.599s1.282 6.78-1.796 15.243c0 0-.745 1.588-1.349 4.19l1.68-.253a16.136 16.136 0 0 1 .257-1.347l.004-.02c.076-.27.184-.655.32-1.124v-.002c0-.001.002-.001 0-.003.359-1.057.591-1.834.727-2.388l.001-.006c1.052-3.308 2.635-7.649 3.979-8.712 0 0-.226-.227-.478-.697l.478.697c3.826 5.578 18.366 4.418 26.125 1.61 7.759-2.807 3.918-4.485-.962-7.414-4.881-2.928-13.771-.626-16.663-1.626-2.893-1.002.788-2.99 6.193-3.393 5.406-.403 8.9 4.405 17.654 3.91C345.346 17.734 349.418.92 349.418.92c-5.674 2.698-16.862 1.1-17.591-.843-.728-1.941 15.124-4.12 17.494-5.091 2.376-.974 5.93-6.432 1.739-15.646Zm46.697 160.59c14.888-8.916 2.211-34.765 2.211-34.765s-33.385-10.57-35.566-15.766c-2.18-5.197 30.303 3.446 30.303 3.446-1.917-10.719-22.124-33.718-22.124-33.718s-32.425 10.952-33.264 5.378c-.838-5.576 29.204-8.23 29.204-8.23-5.851-9.246-20.241-15.361-20.241-15.361-22.435-6.39-29.46 22.83-29.46 22.83s-11.319 3.553-26.392.172c0 0-2.864-.914-7.428-1.378l.772 2.753c.799.018 1.58.064 2.341.147.006-.002.009 0 .014.001a170.075 170.075 0 0 1 2.02.304h.003c.001 0 .001.002.004 0 1.878.379 3.251.605 4.227.717h.009c5.86 1.068 13.594 2.806 15.682 4.832 0 0 .342-.425 1.094-.945l-1.094.945c-8.75 7.55-3.826 31.588 2.538 43.96 6.365 12.372 8.454 5.609 12.466-3.149 4.012-8.757-1.719-23.125-.595-28.163 1.125-5.039 5.266.696 7.048 9.636 1.781 8.942-5.72 15.777-3.101 30.294 2.618 14.518 32.156 17.817 32.156 17.817-5.757-8.911-5.29-27.929-2.122-29.549 3.169-1.619 10.096 24.396 12.235 28.152 2.136 3.758 12.173 8.557 27.06-.36Z"/>
    <path fill="#CDE0FB" d="M178.15 36.332c8.242-12.066 28.984.118 28.984.118s6.889 28.806 11.079 30.944c4.191 2.14-1.15-25.793-1.15-25.793 8.79 2.232 26.741 20.616 26.741 20.616s-10.924 26.764-6.342 27.79c4.581 1.026 8.481-24.199 8.481-24.199 7.346 5.471 11.61 17.976 11.61 17.976 4.038 19.316-20.615 23.58-20.615 23.58s-3.588 9.357-1.634 22.283c0 0 .598 2.471.725 6.353l-2.243-.809a23.551 23.551 0 0 0 .011-1.998l-.002-.028c-.031-.408-.075-.987-.137-1.696v-.006c-.208-1.607-.319-2.779-.357-3.611v-.007c-.555-5.011-1.562-11.643-3.125-13.521 0 0 .372-.265.846-.871l-.846.871c-6.761 6.96-26.438 1.427-36.348-4.657-9.911-6.082-4.178-7.461 3.318-10.349 7.497-2.889 19.1 2.772 23.345 2.112 4.246-.662-.281-4.487-7.602-6.503-7.322-2.016-13.419 3.93-25.322.89-11.902-3.042-12.974-28.181-12.974-28.181 7.072 5.372 22.885 6.064 24.409 3.48 1.523-2.583-19.681-9.922-22.679-11.943-2.999-2.023-6.416-10.776 1.827-22.841Z"/>
    <path fill="#FFB27D" d="M338.96 45.52a3.02 3.02 0 0 0-.102-.225c-.134-.551-1.313-3.474-1.443-3.795-.369-.91-.976-.426-.976.254 0 .21.086 1.711.036 1.928-1-.773-1.617-1.579-4.196-2.345 0 0-1.968-.68-1.022 1.403.633 1.393 1.387 1.567 2.307 3.515.923 1.947 2.625 3.286 4.147 3.164l1.635.581L341 47.432l-1.063-.69a2.603 2.603 0 0 1-.977-1.222Z"/>
    <path fill="#fff" d="M325.929-.432h-93.838v135.151h93.838V-.432Z"/>
    <path fill="#F99746" d="M298.928 11.738h-42.772v2.222h42.772v-2.222Zm-26.914 5.158h-21.386v2.222h21.386v-2.222Zm33.969 0h-31.389v2.222h31.389v-2.222Z"/>
    <path fill="#AEC3FF" d="M299.075 66.964h-46.146v1.692h46.146v-1.692Zm10.863-4.516h-32.675v1.693h32.675v-1.693Zm-36.042 0h-31.832v1.693h31.832v-1.693Zm32.842-4.515h-28.111v1.692h28.111v-1.692Zm-33.364 0h-28.11v1.692h28.11v-1.692Z"/>
    <path fill="#A8C3F7" d="M283.533 83.654h-13.569c-.616 0-1.12-.505-1.12-1.12 0-.617.504-1.121 1.12-1.121h13.569c.615 0 1.12.505 1.12 1.12a1.125 1.125 0 0 1-1.12 1.121Zm18.929 0h-13.57c-.615 0-1.12-.505-1.12-1.12 0-.616.505-1.121 1.12-1.121h13.57c.615 0 1.119.505 1.119 1.12 0 .618-.504 1.121-1.119 1.121Zm-16.574 29.755c-6.741 0-12.225-5.488-12.225-12.235 0-6.747 5.484-12.236 12.225-12.236s12.225 5.489 12.225 12.236c-.002 6.747-5.486 12.235-12.225 12.235Zm0-23.852c-6.401 0-11.608 5.212-11.608 11.618 0 6.407 5.207 11.618 11.608 11.618 6.401 0 11.608-5.211 11.608-11.618 0-6.406-5.207-11.618-11.608-11.618Z"/>
    <path fill="#A8C3F7" d="M285.888 111.033c-5.432 0-9.851-4.423-9.851-9.859 0-5.437 4.419-9.86 9.851-9.86 5.431 0 9.85 4.423 9.85 9.86-.001 5.436-4.42 9.859-9.85 9.859Zm0-19.1c-5.092 0-9.234 4.146-9.234 9.242 0 5.096 4.142 9.242 9.234 9.242 5.091 0 9.233-4.146 9.233-9.242 0-5.096-4.142-9.242-9.233-9.242Z"/>
    <path fill="#A8C3F7" d="M286.018 105.042c-1.28.415-2.528.633-3.509.55-1.495-.125-2.339-.909-2.371-2.209-.027-1.032.401-1.935 1.24-2.667a7.243 7.243 0 0 1-.021-.212c-.055-.727.1-1.21.461-1.436.585-.364 1.453.135 1.488.156l-.193.331c-.194-.114-.772-.362-1.092-.16-.275.172-.309.648-.284 1.034.682-.495 1.574-.897 2.66-1.192a14.28 14.28 0 0 1 2.506-.428c.004-.09.011-.171.022-.238.026-.18.089-.388.263-.43.067-.014.195-.013.311.162.074.112.111.274.118.468.278-.006.537-.002.766.015l.006-.015a4.432 4.432 0 0 1 .059-1.34c.098-.446.258-.67.481-.693a.295.295 0 0 1 .305.188c.126.302-.11 1.118-.45 1.9 0 .001 0 .003.002.004.318.053.535.142.603.265.052.093.058.235-.077.361-.257.237-.463.178-.562.122a.549.549 0 0 1-.205-.236c-.258.51-.537.945-.758 1.128-.203.171-.38.103-.447.066a.49.49 0 0 1-.097-.077 5.221 5.221 0 0 1-.293.605c-.402.706-.855 1.069-1.309 1.048a.736.736 0 0 1-.49-.217 7.11 7.11 0 0 1-.882 1.451c-.319.394-.726.539-1.147.407-.746-.233-1.421-1.312-1.672-2.591-.638.623-.947 1.362-.926 2.209.028 1.109.709 1.726 2.019 1.836 3.311.275 9.115-2.804 9.555-5.071-.361 1.845-3.116 3.944-6.08 4.906Zm-4.235-4.173c.201 1.349.876 2.34 1.45 2.52.269.084.516-.012.735-.283a6.679 6.679 0 0 0 .926-1.583 2.297 2.297 0 0 1-.16-.502c-.093-.444-.108-1.055.001-1.473a9.72 9.72 0 0 0-1.812.631c-.44.207-.821.438-1.14.69Zm3.534.63c.083.126.192.224.339.231.291.012.64-.297.958-.854.166-.29.297-.6.397-.896a3.723 3.723 0 0 1-.108-.781c-.426.034-.891.091-1.369.179.249.484.104 1.304-.217 2.121Zm2.093-1.513c.061.181.114.216.114.216.214-.185.46-.584.683-1.04a9.226 9.226 0 0 0-.612-.002 4.56 4.56 0 0 1-.185.826Zm-2.254-.494c-.098.204-.169.857-.049 1.437.192-.636.232-1.187.049-1.437Zm3.782-.246c.001.002.001 0 .001 0 0 .002 0 .002-.001 0Zm-.056-1.974a2.45 2.45 0 0 0-.092.403c.046-.157.077-.296.092-.403Z"/>
    <path fill="#AEC3FF" d="M301.763 46.406h-51.526V48.1h51.526v-1.693Zm12.133-4.516h-36.487v1.693h36.487v-1.692Zm-40.246 0h-35.543v1.693h35.543v-1.692Zm36.672-4.515h-31.388v1.692h31.388v-1.692Zm-37.254 0H241.68v1.692h31.388v-1.692Z"/>
    <path fill="#91CECF" d="M376.952 43.78s7.661 29.372-15.63 24.49c-6.289-1.319-23.041-18.028-23.041-18.028s1.612-2.546 3.597-2.275c0 0 16.185 5.267 18.773 7.174 1.434 1.056 3.071-15.585 8.029-15.348 4.957.237 8.272 3.987 8.272 3.987Z"/>
    <path fill="#163560" d="M387.449 167.98s-.428 6.908-1.764 7.007c-.178.013-6.773.013-6.773.013l-8.419-.049s.055-2.03 2.517-2.46c2.46-.43 6.58-2.161 8.071-5.416 1.567-3.424 6.368.905 6.368.905Z"/>
    <path fill="#2B478B" d="M387.934 168.458s-2.56.857-4.558.857c-2.23 0-4.255-.608-4.255-.608s-.481-4.664-3.133-14.939c-1.39-5.386-3.376-12.311-6.2-20.917-7.81-23.782-10.184-37.696-10.401-39.013a2.089 2.089 0 0 1-.016-.104l.026-.011 24.009-10.552s-2.968 32.778.819 45.36c.53 1.758.984 3.807 1.374 6.028 2.389 13.667 2.335 33.899 2.335 33.899Z"/>
    <path fill="#233862" d="m385.599 134.559-9.61 19.209c-1.391-5.386-3.376-12.311-6.2-20.917-7.81-23.782-10.184-37.696-10.401-39.013.003-.04.004-.077.008-.115l24.009-10.552s-2.968 32.778.819 45.36c.53 1.759.985 3.808 1.375 6.028Z"/>
    <path fill="#163560" d="M368.696 167.98s-.428 6.908-1.764 7.007c-.178.013-6.773.013-6.773.013l-8.419-.049s.055-2.03 2.517-2.46c2.461-.43 6.58-2.161 8.071-5.416 1.569-3.424 6.368.905 6.368.905Z"/>
    <path fill="#2B478B" d="M355.084 83.944s-.312 21.24 3.36 47.32c3.671 26.08 2.427 37.15 2.427 37.15s2.523.818 3.541.901c2.594.212 5.253-.608 5.253-.608s5.256-26.09 3.749-39.143c-1.507-13.052 7.197-44.792 7.197-44.792l-25.527-.829Z"/>
    <path fill="#FFB27D" d="m372.572 33.4-4.21 3.7-6.883-.303c.016-.555.143-2.862.259-4.953l.022-.367.189-3.308 5.872-3.65 2.19-1.361c-.002.037.09 1.946.104 2.224.252 4.945 2.457 8.018 2.457 8.018Z"/>
    <path fill="#ABDDDA" d="M353.685 84.864c.096 11.21.843 37.439 1.393 37.972 5.835 5.637 31.498-1.545 32.858-7.755 1.359-6.209-5.171-79.624-15.136-82.555-2.067-.607-13.123 2.97-13.123 2.97s-1.734 4.54-2.872 10.324c-.421 2.144-1.797 17.434-2.6 27.653a472.883 472.883 0 0 0-.487 6.743c-.043.682-.052 2.352-.033 4.648Z"/>
    <path fill="#FCA56B" d="M369.657 25.534c-1.046 2.526-5.887 5.266-7.92 6.31l.022-.366.189-3.309 5.873-3.65c1.382-.216 2.268-.024 1.836 1.015Z"/>
    <path fill="#FFB27D" d="M359.777 28.417s10.627.989 11.14-5.645c.513-6.633 2.231-10.972-4.532-11.884-6.763-.911-8.279 1.517-8.988 3.69-.71 2.172-.371 13.41 2.38 13.839Z"/>
    <path fill="#163560" d="M357.659 13.893s2.18 7.127 3.613 6.493c1.434-.636 2.745-1.16 2.991 1.077.245 2.235-1.297 5.207 3.409 4.609 4.707-.598 8.817-13.95 7.066-15.94-5.051-5.74-24.067-3.065-17.079 3.761Z"/>
    <path fill="#91CECF" d="M362.385 32.687c.132-.056 7.584-3.402 8.456-3.114.872.287 1.958 2.953 1.958 2.953l-13.123 2.968s1.033-2.102 2.709-2.807Zm-8.701 60.208c19.968-14.452 21.521-37.359 21.521-37.359-9.5 5.364-18.521 14.232-21.449 23.978-.211 2.724.063 7.075-.039 8.731-.043.686-.051 2.354-.033 4.65Z"/>
    <path fill="#FFB27D" d="M341.148 85.5s-.25-.2-.811-.245c-.482-.163-1.828-.755-2.058-.965-.73-.663-.986.043-.477.747.111.153.506.413.644.558-1.094.414-2.553 1.266-4.448 2.932 0 0-1.517 1.225.533 1.49 1.371.179 1.886-.331 3.823-.111 1.935.221 3.812-.474 4.499-1.737l1.272-1.01-1.084-2.557-1.893.898Z"/>
    <path fill="#ABDDDA" d="M366.725 36.025s21.031-1.01 2.013 34.404c-3.043 5.665-24.776 17.971-24.776 17.971s-2.043-2.214-1.271-4.064c0 0 14.153-16.12 16.049-16.776 1.682-.583 1.335-20.21 2.84-24.945 1.505-4.734 5.145-6.59 5.145-6.59Z"/>
    <path fill="#C0D8FB" d="m348.337 156.321-15.701-.005-8.304-.003c-3.224-.001-5.86-2.641-5.858-5.869l.017-58.066c0-3.226 2.638-5.866 5.861-5.863l7.366.003 16.64.005c3.223 0 5.86 2.64 5.858 5.867l-.016 58.066c-.002 3.225-2.638 5.865-5.863 5.865Z" opacity=".5"/>
    <path fill="#AFCDFB" d="m351.667 139.858-.417-3.056-.417-3.057a2.855 2.855 0 0 0-1.107-1.889 2.856 2.856 0 0 0-2.368-.514 2.84 2.84 0 0 0 .493-1.353 2.866 2.866 0 0 0 3.303 1.685 2.87 2.87 0 0 0 2.117-3.451l-.718-3-.717-3.001a2.856 2.856 0 0 0-1.289-1.771 2.852 2.852 0 0 0-2.159-.348 2.872 2.872 0 0 0-2.117 3.451l1.081 4.521a2.837 2.837 0 0 0-2.257-1.218c.284-.367.47-.793.553-1.24a2.858 2.858 0 0 0-.235-1.756 2.876 2.876 0 0 0-.913-3.043l-4.751-3.931a2.866 2.866 0 0 0-4.028.384 2.872 2.872 0 0 0 .128 3.79 2.827 2.827 0 0 0-.762.098l-2.973.814-2.972.814a2.87 2.87 0 0 0-2.022 2.087l-.312-.748-1.188-2.846a2.867 2.867 0 0 0-3.742-1.538 2.871 2.871 0 0 0-1.537 3.746l1.187 2.845.762 1.824a2.873 2.873 0 0 0-1.807 2.516l-.156 3.081-.155 3.081a2.85 2.85 0 0 0 .738 2.062 2.849 2.849 0 0 0 1.975.944c.336.016.66-.029.966-.122a2.892 2.892 0 0 0-.228 1.935 2.848 2.848 0 0 0-1.213 1.379l-1.177 2.85-1.178 2.851a2.86 2.86 0 0 0 .006 2.19c.281.678.818 1.25 1.546 1.55a2.867 2.867 0 0 0 3.195-.711c.186.442.484.841.889 1.152a2.865 2.865 0 0 0 4.01-.533l1.873-2.448 1.874-2.451c.255-.333.422-.705.511-1.091a2.855 2.855 0 0 0 1.907-.487l.491-.339-.679.888-1.873 2.449a2.872 2.872 0 0 0 .532 4.014 2.867 2.867 0 0 0 4.011-.533l1.873-2.449 1.874-2.45c.023-.031.044-.065.066-.098.151.244.338.46.549.645l-.667.873a2.87 2.87 0 0 0 .533 4.013 2.866 2.866 0 0 0 4.01-.533l3.747-4.899a2.859 2.859 0 0 0 .561-2.117 2.854 2.854 0 0 0-1.777-2.282c.035-.003.069-.004.103-.008a2.866 2.866 0 0 0 2.447-3.221Zm-25.782-2.733.053-1.051a2.761 2.761 0 0 0 1.067 1.035l-1.311.905c.107-.277.175-.575.191-.889Zm19.279-2.606.561 4.11a2.863 2.863 0 0 0-1.073-1.178 2.848 2.848 0 0 0-1.897-.397c.292-.179.559-.41.779-.697l1.608-2.103c.003.088.01.177.022.265Zm-6.507-11.102.72.596-.742.513a2.83 2.83 0 0 0 .022-1.109Zm.621 9.08a2.88 2.88 0 0 0-.507-1.216c.213-.08.42-.183.615-.318l2.255-1.556-2.363 3.09Zm1.872 5.358a2.879 2.879 0 0 0-2.157-.651l.06-.772a2.85 2.85 0 0 0 2.614 1.013 2.905 2.905 0 0 0-.517.41Zm-5.764-10.838a2.878 2.878 0 0 0 .022 3.215l.04.052c-.208.079-.405.18-.588.305a2.871 2.871 0 0 0-.981-3.15l-.009-.006 1.516-.416Zm-2.847 6.886 1.103-1.443a2.675 2.675 0 0 0-.035.271l-.209 2.649a2.859 2.859 0 0 0-1.453-.701l.594-.776Zm-5.166 12.103.324-.785a2.846 2.846 0 0 0 .138-1.741c.065-.039.13-.076.193-.12l5.076-3.503c.032-.022.062-.049.093-.071.068.278.177.542.322.783l-.903.623c-.608.421-1 1.038-1.156 1.709a2.863 2.863 0 0 0-2.556 1.103l-1.531 2.002Zm13.461-3.53.159.662a2.833 2.833 0 0 0-.793-.225l.634-.437Zm6.043.669-.22-.922-.042-.176c.311.38.714.678 1.169.858-.312.031-.618.11-.907.24Zm-17.329-14.754-1.554 2.03-1.872 2.449c-.009.012-.015.024-.024.034l.098-1.942c.003-.051 0-.1 0-.148a2.872 2.872 0 0 0 2.008-2.962c.394.291.855.479 1.344.539Z"/>
    <path fill="#AFCDFB" d="m332.636 156.316-8.304-.003c-3.224-.001-5.86-2.641-5.858-5.869l.017-58.066c0-3.226 2.638-5.866 5.861-5.863l7.366.003a7.201 7.201 0 0 1 .961 3.628l-.019 65.585c0 .197-.007.391-.024.585Z" opacity=".5"/>
    <path fill="#F99746" d="m353.831 89.259-22.298-.008-12.656-.004a1.141 1.141 0 0 1-1.139-1.142l.002-5.467c0-.627.513-1.14 1.14-1.14l12.638.003h.003l22.313.006c.626 0 1.139.512 1.139 1.141l-.001 5.468c0 .63-.512 1.144-1.141 1.143Z"/>
    <path fill="#EF7E29" d="m331.533 89.253-12.656-.004a1.141 1.141 0 0 1-1.139-1.142l.002-5.468c0-.626.513-1.14 1.14-1.14l12.638.003h.003a1.144 1.144 0 0 1 1.136 1.142l-.002 5.468a1.144 1.144 0 0 1-1.122 1.141ZM418 153.298a3.837 3.837 0 0 1-1.13 2.717 3.832 3.832 0 0 1-2.715 1.131h-18.147a3.856 3.856 0 0 1-3.842-3.847c0-1.057.432-2.018 1.129-2.716a3.831 3.831 0 0 1 2.714-1.13h18.148a3.856 3.856 0 0 1 3.843 3.845Z"/>
    <path fill="#F99746" d="M408.638 153.298a3.84 3.84 0 0 1-1.129 2.717 3.831 3.831 0 0 1-2.714 1.131h-8.787a3.856 3.856 0 0 1-3.842-3.847c0-1.057.432-2.018 1.129-2.716a3.831 3.831 0 0 1 2.714-1.13h8.787a3.855 3.855 0 0 1 3.842 3.845Z"/>
    <path fill="#FFE2CC" d="M414.464 151.52h-17.31a.548.548 0 0 1-.545-.545v-.123c0-.301.246-.545.545-.545h17.31c.301 0 .545.246.545.545v.123a.548.548 0 0 1-.545.545Z" opacity=".5"/>
    <path fill="#FCECDB" d="M224.892 37.923v54.159c0 3.324-2.716 6.044-6.038 6.044H186.69a5.946 5.946 0 0 1-2.423-.513c-2.123-.938-3.616-3.069-3.616-5.531V37.923c0-3.325 2.718-6.043 6.039-6.043h32.164c3.322 0 6.038 2.72 6.038 6.043Z"/>
    <path fill="#F7E0CB" d="M210.644 52.246a6.58 6.58 0 0 1-3.843-8.47 6.57 6.57 0 0 1 8.463-3.847 6.582 6.582 0 0 1 3.843 8.47 6.569 6.569 0 0 1-8.463 3.847Z"/>
    <path fill="#EFCBAB" d="m219.108 48.401-12.306-4.625a6.57 6.57 0 0 1 8.463-3.847 6.583 6.583 0 0 1 3.843 8.472Z"/>
    <path fill="#F7E0CB" d="M188.433 51.184a6.58 6.58 0 0 1-.935-9.256 6.568 6.568 0 0 1 9.248-.936 6.582 6.582 0 0 1 .935 9.257 6.571 6.571 0 0 1-9.248.935Z"/>
    <path fill="#EFCBAB" d="m197.68 50.249-10.183-8.32a6.57 6.57 0 0 1 9.249-.937 6.582 6.582 0 0 1 .934 9.257Z"/>
    <path fill="#F7E0CB" d="M210.644 92.375a6.58 6.58 0 0 1-3.843-8.47 6.57 6.57 0 0 1 8.463-3.847 6.58 6.58 0 0 1 3.843 8.47 6.57 6.57 0 0 1-8.463 3.847Z"/>
    <path fill="#EFCBAB" d="m219.108 88.977-12.306-4.625a6.57 6.57 0 0 1 8.463-3.847 6.583 6.583 0 0 1 3.843 8.472Z"/>
    <path fill="#F7E0CB" d="M188.433 91.314a6.58 6.58 0 0 1-.935-9.257 6.568 6.568 0 0 1 9.248-.936 6.582 6.582 0 0 1 .935 9.257 6.571 6.571 0 0 1-9.248.936Z"/>
    <path fill="#EFCBAB" d="m197.68 90.823-10.183-8.32a6.57 6.57 0 0 1 9.249-.936 6.582 6.582 0 0 1 .934 9.257Z"/>
    <path fill="#F7E0CB" d="M215.769 72.844a6.57 6.57 0 0 1-8.754-3.127 6.58 6.58 0 0 1 3.124-8.762 6.572 6.572 0 0 1 8.755 3.127 6.581 6.581 0 0 1-3.125 8.762Z"/>
    <path fill="#EFCBAB" d="m218.894 64.082-11.879 5.635a6.58 6.58 0 0 1 3.124-8.762 6.571 6.571 0 0 1 8.755 3.127Z"/>
    <path fill="#F7E0CB" d="M186.487 64.455a6.57 6.57 0 0 1 8.545-3.663 6.579 6.579 0 0 1 3.659 8.552 6.57 6.57 0 0 1-8.544 3.663 6.583 6.583 0 0 1-3.66-8.552Z"/>
    <path fill="#EFCBAB" d="m190.146 73.007 4.885-12.215a6.58 6.58 0 0 1 3.66 8.552 6.571 6.571 0 0 1-8.545 3.663Z"/>
    <path fill="#EFCBAB" d="M224.892 45.335v47.129c0 3.114-2.485 5.662-5.525 5.662h-29.432c-.787 0-1.537-.17-2.217-.48V51.86c0-1.873.781-3.567 2.025-4.76.46-.441.984-.815 1.555-1.102a6.19 6.19 0 0 1 2.787-.663h30.807Z" opacity=".5"/>
    <path fill="#FCECDB" d="M188.769 105.842V51.684c0-3.324 2.717-6.044 6.038-6.044h32.164c3.321 0 6.038 2.72 6.038 6.044v54.16c0 3.324-2.717 6.043-6.038 6.043h-32.164c-3.321-.001-6.038-2.721-6.038-6.045Z"/>
    <path fill="#F7E0CB" d="M218.761 66.006a6.58 6.58 0 0 1-3.843-8.47 6.57 6.57 0 0 1 8.463-3.846 6.581 6.581 0 0 1 3.843 8.47 6.569 6.569 0 0 1-8.463 3.846Z"/>
    <path fill="#EFCBAB" d="m227.225 62.162-12.306-4.626a6.57 6.57 0 0 1 8.463-3.846 6.583 6.583 0 0 1 3.843 8.472Z"/>
    <path fill="#F7E0CB" d="M196.55 64.945a6.58 6.58 0 0 1-.935-9.256 6.568 6.568 0 0 1 9.248-.936 6.582 6.582 0 0 1 .935 9.256 6.571 6.571 0 0 1-9.248.936Z"/>
    <path fill="#EFCBAB" d="m205.798 64.008-10.184-8.321a6.57 6.57 0 0 1 9.249-.936 6.585 6.585 0 0 1 .935 9.257Z"/>
    <path fill="#F7E0CB" d="M218.761 106.135a6.58 6.58 0 0 1-3.843-8.47 6.57 6.57 0 0 1 8.463-3.846 6.58 6.58 0 0 1 3.843 8.47 6.57 6.57 0 0 1-8.463 3.846Z"/>
    <path fill="#EFCBAB" d="m227.225 102.736-12.306-4.625a6.57 6.57 0 0 1 8.463-3.847 6.583 6.583 0 0 1 3.843 8.472Z"/>
    <path fill="#F7E0CB" d="M206.696 102.669a6.58 6.58 0 0 0-3.309-8.693 6.57 6.57 0 0 0-8.685 3.312 6.58 6.58 0 0 0 3.309 8.693 6.57 6.57 0 0 0 8.685-3.312Z"/>
    <path fill="#EFCBAB" d="m205.798 104.584-10.184-8.321a6.57 6.57 0 0 1 9.249-.936 6.586 6.586 0 0 1 .935 9.257Z"/>
    <path fill="#F7E0CB" d="M223.886 86.604a6.57 6.57 0 0 1-8.754-3.127 6.58 6.58 0 0 1 3.124-8.762 6.572 6.572 0 0 1 8.755 3.127 6.582 6.582 0 0 1-3.125 8.762Z"/>
    <path fill="#EFCBAB" d="m227.011 77.842-11.879 5.635a6.58 6.58 0 0 1 3.124-8.762 6.572 6.572 0 0 1 8.755 3.127Z"/>
    <path fill="#F7E0CB" d="M194.604 78.215a6.57 6.57 0 0 1 8.545-3.663 6.58 6.58 0 0 1 3.659 8.552 6.57 6.57 0 0 1-8.544 3.663 6.58 6.58 0 0 1-3.66-8.552Z"/>
    <path fill="#EFCBAB" d="m198.264 86.767 4.884-12.215a6.58 6.58 0 0 1 3.66 8.552 6.57 6.57 0 0 1-8.544 3.663Z"/>
    <path fill="#EF7E29" d="M228.03 67.243h-50.515v75.453h50.515V67.243Z"/>
    <path fill="#F99746" d="M235.067 67.243h-50.516v75.455h50.516V67.243Z"/>
    <path fill="#D8661A" d="m184.552 71.622-2.422 3.768h-4.615v-8.147h7.037v4.38Z"/>
    <path fill="#F99746" d="M180.236 73.187h-7.037l4.315-5.944h7.037l-4.315 5.944Z"/>
    <path fill="#EFCBAB" d="M210.605 142.937h-26.054V70.682l26.054 2.505v69.75Z" opacity=".5"/>
    <path fill="#EF7E29" d="m235.067 73.187-4.099 2.203h-43.982l-2.435-3.768v-4.38l50.516 5.945Z"/>
    <path fill="#F99746" d="M238.635 73.187h-50.516l-3.568-5.944h50.516l3.568 5.944Z"/>
    <path fill="#ED985F" d="M133.07 61.214c-1.338-4.296-7.151-5.102-9.492-1.258a4.788 4.788 0 0 0-.71 2.395c-.128 5.039 9.799 24.54 11.117 26.265 2.4 3.14 16.88 10.693 16.88 10.693l3.077-.449s-1.739-1.094-3.541-2.894c-3.721-3.718-9.145-9.761-10.138-10.6-1.705-1.437-4.654-15.994-7.193-24.152Z"/>
    <path fill="#FCECDB" d="M219.184 155.888h-66.063c-4.09 0-7.436-3.349-7.436-7.442v-40.033c0-4.094 3.346-7.443 7.436-7.443h66.063c4.09 0 7.436 3.349 7.436 7.443v40.033c0 4.093-3.346 7.442-7.436 7.442Z"/>
    <path fill="#F7E0CB" d="M170.567 118.657c-1.561 4.22-6.195 6.354-10.349 4.77-4.155-1.584-6.26-6.286-4.698-10.506 1.56-4.218 6.194-6.354 10.349-4.77 4.154 1.584 6.259 6.289 4.698 10.506Z"/>
    <path fill="#EFCBAB" d="m165.869 108.151-5.651 15.276c-4.155-1.584-6.26-6.286-4.698-10.506 1.559-4.218 6.194-6.353 10.349-4.77Z"/>
    <path fill="#F7E0CB" d="M169.27 146.229a7.953 7.953 0 0 1-11.307 1.161c-3.438-2.848-3.951-7.988-1.144-11.48a7.956 7.956 0 0 1 11.308-1.161c3.438 2.85 3.95 7.991 1.143 11.48Z"/>
    <path fill="#EFCBAB" d="m168.126 134.751-10.165 12.641c-3.438-2.849-3.951-7.988-1.144-11.481a7.954 7.954 0 0 1 11.309-1.16Z"/>
    <path fill="#F7E0CB" d="M219.595 118.657c-1.56 4.22-6.193 6.354-10.349 4.77-4.155-1.584-6.26-6.286-4.698-10.506 1.561-4.218 6.194-6.354 10.349-4.77 4.154 1.584 6.257 6.289 4.698 10.506Z"/>
    <path fill="#EFCBAB" d="m214.897 108.151-5.651 15.276c-4.155-1.584-6.26-6.286-4.698-10.506 1.561-4.218 6.195-6.353 10.349-4.77Z"/>
    <path fill="#F7E0CB" d="M218.296 146.229a7.95 7.95 0 0 1-10.948 1.44 6.307 6.307 0 0 1-.36-.279c-3.438-2.848-3.951-7.987-1.143-11.48a7.953 7.953 0 0 1 11.649-.862c3.129 2.899 3.512 7.81.802 11.181Z"/>
    <path fill="#EFCBAB" d="m217.494 135.05-10.146 12.618a5.865 5.865 0 0 1-.36-.278c-3.438-2.848-3.951-7.987-1.143-11.48a7.953 7.953 0 0 1 11.649-.86Z"/>
    <path fill="#F7E0CB" d="M195.733 112.295c1.901 4.073.189 8.938-3.821 10.867-4.011 1.929-8.803.196-10.704-3.879-1.901-4.071-.19-8.938 3.821-10.867 4.008-1.929 8.803-.193 10.704 3.879Z"/>
    <path fill="#EFCBAB" d="m185.027 108.417 6.885 14.747c-4.01 1.929-8.803.195-10.704-3.879-1.901-4.072-.191-8.938 3.819-10.868Z"/>
    <path fill="#F7E0CB" d="M185.483 148.646c-4.122-1.675-6.124-6.425-4.474-10.607 1.649-4.183 6.325-6.219 10.448-4.543 4.119 1.675 6.124 6.425 4.474 10.607-1.649 4.181-6.328 6.216-10.448 4.543Z"/>
    <path fill="#EFCBAB" d="m195.931 144.102-14.923-6.063c1.649-4.183 6.325-6.219 10.448-4.543 4.12 1.674 6.124 6.423 4.475 10.606Z"/>
    <path fill="#B5453C" d="M137.274 36.565c.08-.323-7.025 3.214-7.385 3.614-3.331 3.7-2.381 8.526-.475 8.572 1.224.03.986 2.064.986 2.064l13.622-5.768c-.001.001-1.64-9.572-6.748-8.482Z"/>
    <path fill="#B5453C" d="M138.95 37.31s.487-5.31-5.442-5.31c0 0 1.797.487 2.726 1.463 0 0-3.781-2.223-7.898 1.192-4.117 3.414-1.557 11.977-2.809 13.603-1.251 1.626-6.126 1.951-5.529 7.209.596 5.257 15.467 11.841 14.513 16.191 0 0 5.828-8.574 1.661-12.488 0 0 2.031 1.914 2.238 4.191 0 0 .552-4.444-2.274-5.866-2.5-1.258-4.548-5.858-4.332-6.68.216-.822 7.146-13.504 7.146-13.504Z"/>
    <path fill="#2B478B" d="m122.296 152.156-2.949-.434s-9.911-7.884-11.387-22.593a26.322 26.322 0 0 1-.071-4.548c.013-.177-.006-.354-.104-.502 0-.002-.001-.002-.003-.005a169.258 169.258 0 0 1-2.176-3.441c-1.053-1.708-2.856-4.939-4.841-8.563-3.574-6.528-7.736-14.335-9.163-16.82-4.547-7.926-2.355-13.255-2.355-13.255s12.686-1.255 16.163-4.3l1.251 1.933s2.749 12.18 2.618 12.235l.413 1.265c2.169 6.7 4.664 15.076 6.025 21.897.765 3.838 1.17 7.182.953 9.461-.074.782.016 1.982.225 3.466 1.229 8.742 5.401 24.204 5.401 24.204Z"/>
    <path fill="#233862" d="M128.479 155.888h-12.298s-.295-1.875.347-3.298c.616-1.365 1.493-1.41.113-3.551.781.806 3.294 1.139 5.072.899.218.354 1.404 2.726 2.132 3.248.803.579 4.387.374 4.634 2.702ZM109.696 93.13c-1.074 5.929-3.613 15.798-8.929 18.94-3.574-6.528-7.736-14.335-9.163-16.82-4.547-7.926-2.355-13.255-2.355-13.255s12.686-1.255 16.163-4.3l1.251 1.933s2.749 12.18 2.618 12.235l.415 1.266Z"/>
    <path fill="#2B478B" d="m101.07 82.912.042-2.302c-4.583.579-15.802-5.481-15.802-5.481s-4.794 3.192-5.451 12.306c-.321 4.449-2.348 23.264-2.571 28.883a169.906 169.906 0 0 0-.118 4.076c-.003.177-.086.333-.196.473a26.418 26.418 0 0 0-2.483 3.81c-6.993 13.023-3.336 30.717-3.336 30.717l1.624-.413s5.913-18.344 9.778-26.279c.656-1.345 1.252-2.392 1.75-2.998 1.453-1.766 2.985-4.766 4.496-8.377 2.855-6.825 5.627-15.831 7.603-22.805.14.025 4.664-11.61 4.664-11.61Z"/>
    <path fill="#FFB27D" d="M127.889 67.547c-7.492-1.72-2.705-12.258-2.271-12.073 1.039-.211 3.318-2.035 5.358-5.6l.276.24 4.602 4.038s-1.064 1.571-1.959 3.11c-.7 1.203-1.293 2.39-1.2 2.797.369.29-2.807 7.947-4.806 7.488Z"/>
    <path fill="#91CECF" d="M132.618 59.719s1.317 2.601 2.021 4.855c.703 2.253 2.462 9.42 2.462 9.42s-3.628 4.143-8.672 3.9c0 0-2.713-4.25-1.757-8.088.955-3.838 5.946-10.087 5.946-10.087Z"/>
    <path fill="#ED985F" d="M135.852 54.154s-1.064 1.567-1.958 3.109c-2.861-1.765-2.864-5.311-2.644-7.147l4.602 4.038Z"/>
    <path fill="#FFB27D" d="M135.979 56.176s-6.946-3.869-4.473-8.16c2.473-4.293 3.243-7.683 7.783-5.395 4.539 2.29 4.449 4.42 3.971 6.054-.476 1.632-5.411 8.397-7.281 7.501Z"/>
    <path fill="#B5453C" d="M144.434 46.169c-.318-1.905-1.285-2.088-1.96-1.96-2.565-4.247-6.757-2.59-6.757-2.59-2.238 2.812-5.475 3.291-5.475 3.291s.806 1.502 4.127 2.432c1.015.284 2.166.112 3.277-.262-2.305 1.285-4.714 1.778-4.714 1.778 4.377.401 8.541-3.604 8.973-4.033.202.62.556 1.92.344 2.869-.288 1.291-1.433 3.629-.733 3.93 0 .004 3.396-2.596 2.918-5.455Z"/>
    <path fill="#233862" d="M80.935 155.888H68.637s-.295-1.875.347-3.298c.616-1.365 1.58-1.987 1.35-3.639.78.805 2.054 1.707 3.832 1.467.218.354 1.407 2.246 2.135 2.768.803.579 4.386.374 4.634 2.702Z"/>
    <path fill="#ABDDDA" d="M128.771 75.9c-1.583.552-3.803.856-6.075 1.103-3.234.354-6.574.594-8.323 1.294-.341.136-1.335.552-2.332 1.275v.001s-.026.015-.068.052c-.33.241-.662.52-.965.834-.464.478-.868 1.034-1.129 1.676-.642 1.585.209 5.983.752 8.387a2.187 2.187 0 0 1-1.117 2.424 75.967 75.967 0 0 1-3.626 1.761c-.063.029-.124.055-.186.085.012-.245.015-.487.015-.724a22.489 22.489 0 0 0-.209-3.038c-.291 1.674-1.393 3.482-2.42 4.872-16.504 6.629-28.037 3.748-27.847.446.65-11.466 8.375-21.216 8.375-21.216 14.407-16.768 43.549-21.183 43.549-21.183s1.395-.168 3.08 1.857c2.423 2.918 2.542 3.678 2.542 3.678s.641 14.79-4.016 16.416Z"/>
    <path fill="#91CECF" d="M122.694 77.003c-3.234.354-6.573.595-8.323 1.292-.714-10.69 4.326-18.73 4.326-18.73s3.288 13.392 3.997 17.438Z"/>
    <path fill="#FFB27D" d="M126.091 57.497s-8.105.8-8.755 6.073c-.649 5.27 7.771 26.74 8.977 28.684 2.195 3.539 15.122 15.67 15.122 15.67l2.383-1.445s-9.17-15.537-10.588-16.99c-2.229-2.284-4.394-30.167-7.139-31.992Z"/>
    <path fill="#ABDDDA" d="M130.244 67.566s.833-13.59-9.56-10.305c-10.394 3.287 1.612 26.662 1.612 26.662s6.101-.302 8.263-5.629l-.315-10.728Z"/>
    <path fill="#91CECF" d="M110.632 90.52a2.187 2.187 0 0 1-1.117 2.424 76.435 76.435 0 0 1-3.626 1.762 8.413 8.413 0 0 1-.172-.64c-.187-.836-.273-1.838-.208-3.038.275-5.075 3.729-8.917 5.498-10.568-.464.478-.868 1.035-1.128 1.676-.642 1.583.208 5.98.753 8.384Zm16.532-36.574s1.269-1.605 2.126-1.553c0 0 3.467 4.86 3.495 7.089.002 0-4.324-5.76-5.621-5.536Z"/>
    <path fill="#ED985F" d="M160.437 100.97s-1.844.033-2.242-.023c-.391-.057-.913-.227-1.438-.245-.516-.019-.991.148-1.476.249a1.09 1.09 0 0 1-.219.021h-3.059s-.307-.147-.643-.687c-.144-.234-.164-.79-.494-.976-1.852-1.035 3.077-.448 3.077-.448s3.095-.057 3.381.156c.507.382 3.229 1.807 3.113 1.953Z"/>
    <path fill="#ED985F" d="M152.002 100.972s1.878.542 2.388.891l.538.34s.313-.347-.179-.735c-.258-.205-.974-.801-.997-1.487-.022-.685-2.142-.087-1.75.991Z"/>
    <path fill="#FFB27D" d="M143.818 106.479s1.342 1.194 2.362 1.445c1.021.252 2.181 3.178 2.366 3.595.185.418-.975-.185-1.438-.897-.465-.712-.781-.991-.916-.837-.136.156.081 2.106.854 3.188.773 1.084 1.236 2.043.68 1.981-.556-.062-3.865-.866-4.546-2.878-.68-2.012-.182-2.083-1.745-4.152-1.564-2.069 2.383-1.445 2.383-1.445Z"/>
    <path fill="#2B478B" d="M304.452 154.318a4.88 4.88 0 0 1-1.438 3.457 4.877 4.877 0 0 1-3.456 1.439h-23.102c-2.69 0-4.891-2.204-4.891-4.896 0-1.347.551-2.569 1.437-3.457a4.88 4.88 0 0 1 3.454-1.437h23.102c2.691-.002 4.894 2.202 4.894 4.894Z"/>
    <path fill="#699FF0" d="M292.534 154.318a4.884 4.884 0 0 1-1.437 3.457 4.874 4.874 0 0 1-3.455 1.439h-11.186c-2.69 0-4.891-2.204-4.891-4.896 0-1.347.551-2.569 1.437-3.457a4.88 4.88 0 0 1 3.454-1.437h11.186c2.691-.002 4.892 2.202 4.892 4.894Z"/>
    <path fill="#E9F3FE" d="M299.949 152.052h-22.037a.694.694 0 0 1-.692-.693v-.156c0-.381.313-.693.692-.693h22.037c.381 0 .693.312.693.693v.156a.693.693 0 0 1-.693.693Z" opacity=".4"/>
    <path fill="#EF7E29" d="M284.737 140.449a5.174 5.174 0 0 1 .279 3.96 5.176 5.176 0 0 1-2.592 3.007L260.525 158.4c-2.549 1.278-5.682.236-6.959-2.316a5.174 5.174 0 0 1-.279-3.96 5.185 5.185 0 0 1 2.592-3.005l21.897-10.984c2.551-1.28 5.684-.238 6.961 2.314Z"/>
    <path fill="#F99746" d="M273.442 146.114a5.183 5.183 0 0 1 .28 3.96 5.172 5.172 0 0 1-2.592 3.007l-10.603 5.319c-2.549 1.278-5.682.236-6.959-2.316a5.174 5.174 0 0 1-.279-3.96 5.185 5.185 0 0 1 2.592-3.005l10.603-5.317c2.548-1.28 5.681-.24 6.958 2.312Z"/>
    <path fill="#FFE2CC" d="m279.396 140.442-20.888 10.477a.736.736 0 0 1-.987-.328l-.073-.149a.738.738 0 0 1 .328-.988l20.888-10.477a.737.737 0 0 1 .987.329l.073.149a.738.738 0 0 1-.328.987Z" opacity=".5"/>
  </g>
</svg>
